<svg xmlns="http://www.w3.org/2000/svg" width="512.000000pt" height="512.000000pt" viewBox="0 0 512.000000 512.000000" preserveAspectRatio="xMidYMid meet"><metadata>Created by potrace 1.16, written by Peter Selinger 2001-2019</metadata><g transform="translate(0.000000,512.000000) scale(0.100000,-0.100000)" fill="#000000" stroke="none"><path d="M495 5103 c-64 -33 -105 -95 -105 -155 0 -32 -4 -35 -118 -93 l-117 -60 -3 -50 c-1 -27 33 -331 76 -674 l79 -625 -24 -34 c-19 -29 -23 -48 -23 -106 1 -177 70 -358 199 -515 50 -62 170 -155 252 -196 79 -40 225 -85 276 -85 28 0 33 -3 29 -17 -2 -10 -8 -38 -11 -62 -26 -161 -137 -350 -282 -477 -32 -27 -139 -108 -238 -180 -230 -165 -318 -251 -373 -364 -58 -117 -69 -196 -53 -354 25 -230 73 -404 160 -571 38 -75 64 -108 151 -195 118 -118 196 -166 355 -219 189 -62 237 -66 790 -65 413 1 517 4 599 18 392 65 663 295 827 701 69 170 115 366 147 614 l17 135 48 12 c244 62 363 357 233 578 -34 58 -107 123 -174 154 -50 24 -69 27 -162 27 -119 0 -168 -16 -247 -81 -175 -144 -189 -418 -30 -578 43 -42 131 -96 159 -96 36 -1 38 -12 22 -145 -27 -238 -83 -453 -159 -621 -141 -309 -380 -502 -690 -557 -120 -22 -775 -40 -968 -27 -303 21 -494 87 -643 222 -165 151 -259 377 -295 704 -14 127 -5 195 37 281 48 99 95 141 422 378 292 212 442 426 484 694 14 90 8 84 101 96 26 3 79 17 117 30 340 116 566 418 571 762 1 64 -2 80 -22 106 l-23 32 82 658 c61 491 79 663 72 678 -6 10 -60 44 -120 74 l-108 54 -11 53 c-22 101 -93 158 -199 158 -118 0 -199 -89 -190 -210 11 -150 161 -229 296 -155 l49 27 72 -36 c39 -20 71 -41 71 -47 0 -5 -34 -285 -76 -622 -73 -599 -76 -612 -100 -631 -36 -27 -51 -62 -58 -145 -24 -246 -175 -436 -403 -507 -73 -23 -95 -26 -190 -22 -133 6 -217 35 -318 111 -134 101 -213 249 -230 432 -7 75 -9 82 -44 115 l-37 35 -72 585 c-40 322 -76 602 -79 622 l-5 37 72 36 73 37 49 -27 c82 -45 195 -30 249 31 67 77 67 201 0 278 -47 53 -171 74 -236 39z"></path><path d="M4040 3644 c-292 -36 -585 -172 -779 -363 -79 -76 -169 -202 -193 -267 -6 -19 -14 -34 -18 -33 -3 0 -22 35 -42 77 -68 139 -202 277 -372 383 -150 92 -393 179 -547 196 -56 6 -57 5 -62 -23 -19 -96 -18 -129 4 -178 19 -45 21 -61 16 -160 -9 -176 -62 -328 -167 -481 -56 -80 -167 -191 -244 -244 -70 -48 -221 -116 -304 -137 -63 -16 -74 -22 -78 -44 -17 -78 -51 -174 -89 -250 l-43 -85 34 -95 c78 -220 239 -499 418 -725 105 -133 401 -425 556 -551 146 -117 292 -224 307 -224 18 0 133 129 178 199 50 78 103 196 139 309 26 82 66 264 66 299 0 12 -21 29 -68 52 -101 52 -217 172 -271 281 -202 411 77 890 534 917 434 25 767 -389 648 -807 -55 -195 -225 -371 -419 -434 l-51 -17 -13 -77 c-53 -337 -194 -673 -366 -874 -24 -29 -44 -55 -44 -59 0 -8 130 -83 227 -133 l53 -26 62 31 c124 62 296 163 451 265 825 542 1340 1199 1471 1879 40 207 44 459 10 654 -30 175 -111 360 -204 469 -99 115 -260 213 -415 252 -79 20 -303 34 -385 24z"></path></g></svg>