<svg xmlns="http://www.w3.org/2000/svg" width="860.000000pt" height="1060.000000pt" viewBox="0 0 860.000000 1060.000000" preserveAspectRatio="xMidYMid meet"><metadata>Created by potrace 1.16, written by Peter Selinger 2001-2019</metadata><g transform="translate(0.000000,1060.000000) scale(0.100000,-0.100000)" fill="#000000" stroke="none"><path d="M4400 10194 c-1326 -95 -2437 -726 -2974 -1690 -258 -462 -370 -952 -364 -1589 3 -234 -5 -295 -68 -535 -102 -390 -265 -808 -515 -1317 -126 -258 -155 -337 -168 -452 -24 -232 82 -382 311 -436 106 -25 103 -27 127 70 35 139 108 367 160 498 190 480 466 814 916 1109 211 138 396 225 597 277 158 41 239 52 412 52 257 1 438 -38 759 -163 107 -42 147 -64 245 -136 159 -117 222 -158 317 -208 205 -109 518 -173 710 -144 122 18 309 64 418 104 184 67 327 142 575 303 65 42 155 95 202 117 79 38 91 41 165 40 144 -1 255 -67 312 -182 26 -54 28 -64 28 -192 0 -149 -9 -178 -78 -257 -84 -96 -361 -257 -537 -312 -336 -105 -563 -381 -675 -821 -67 -263 -66 -250 -75 -1415 -4 -583 -9 -1375 -11 -1760 l-3 -700 1177 -3 1177 -2 0 1898 c0 1248 4 1927 10 1982 13 101 43 216 71 272 11 22 40 59 63 82 55 54 114 156 198 344 248 553 420 1193 392 1461 -4 32 -1 112 6 177 36 346 -1 763 -101 1117 -356 1266 -1567 2212 -3064 2393 -125 15 -592 27 -715 18z"></path><path d="M2190 4953 c-272 -42 -550 -181 -753 -375 l-87 -83 -236 -460 c-129 -253 -238 -477 -241 -497 -8 -55 35 -137 95 -181 97 -71 214 -116 396 -152 80 -15 112 -26 114 -37 2 -9 -31 -41 -87 -82 -179 -133 -237 -228 -213 -345 20 -94 88 -154 230 -202 l63 -21 -7 -125 c-4 -69 -7 -215 -8 -326 l-1 -202 32 -66 c56 -114 171 -204 323 -254 51 -17 95 -18 690 -12 616 6 637 6 667 -13 18 -11 41 -37 52 -58 36 -71 41 -148 35 -512 -4 -190 -4 -380 0 -422 l8 -78 530 0 531 0 -6 668 c-17 1638 -45 2143 -134 2414 -94 288 -345 637 -638 888 -332 284 -684 475 -972 525 -78 14 -316 19 -383 8z"></path></g></svg>