<svg xmlns="http://www.w3.org/2000/svg" width="191.000000pt" height="264.000000pt" viewBox="0 0 191.000000 264.000000" preserveAspectRatio="xMidYMid meet"><g transform="translate(0.000000,264.000000) scale(0.100000,-0.100000)" fill="#000000" stroke="none"><path d="M124 2621 c-17 -10 -36 -34 -43 -52 -16 -47 -14 -202 4 -245 15 -37 62 -64 110 -64 l26 0 -40 -52 c-55 -74 -105 -169 -138 -263 l-28 -80 -3 -700 c-2 -653 -1 -702 15 -734 10 -19 31 -44 46 -55 27 -20 41 -21 269 -21 l241 0 12 42 13 43 -214 0 c-144 0 -222 4 -239 12 -47 21 -55 53 -55 213 l0 145 384 0 385 0 210 274 c116 151 234 294 262 319 l51 45 -5 194 c-3 136 -10 211 -22 253 -21 78 -102 246 -149 310 -22 31 -31 51 -24 52 73 10 93 17 114 40 23 24 24 33 24 149 0 122 0 124 -29 156 l-29 33 -559 3 c-535 2 -559 1 -589 -17z m986 -427 c25 -34 60 -88 77 -121 38 -70 88 -218 98 -285 l6 -48 -592 0 -592 0 7 53 c16 123 82 276 173 405 l45 62 366 -2 367 -3 45 -61z m-322 -646 c7 -7 12 -43 12 -90 l0 -78 78 0 c47 0 83 -5 90 -12 16 -16 16 -170 0 -186 -7 -7 -43 -12 -90 -12 l-78 0 0 -78 c0 -47 -5 -83 -12 -90 -7 -7 -43 -12 -89 -12 -101 0 -109 8 -109 106 l0 74 -74 0 c-97 0 -106 8 -106 102 0 97 10 108 107 108 l73 0 0 74 c0 98 8 106 109 106 46 0 82 -5 89 -12z"></path><path d="M1530 1351 c-51 -17 -87 -41 -130 -88 -68 -72 -622 -797 -648 -847 -54 -100 -35 -231 45 -317 65 -69 120 -94 213 -93 86 0 152 27 206 86 54 56 626 800 652 846 33 59 41 160 18 229 -37 111 -137 184 -261 189 -38 2 -81 0 -95 -5z m-275 -717 c83 -64 158 -124 169 -134 17 -17 14 -23 -121 -196 -160 -207 -188 -229 -288 -228 -107 0 -184 61 -211 166 -22 85 -7 127 98 264 49 65 111 147 137 181 25 34 51 62 56 62 6 0 78 -52 160 -115z"></path></g></svg>