<svg xmlns="http://www.w3.org/2000/svg" width="380.000000pt" height="380.000000pt" viewBox="0 0 380.000000 380.000000" preserveAspectRatio="xMidYMid meet"><metadata>Created by potrace 1.16, written by Peter Selinger 2001-2019</metadata><g transform="translate(0.000000,380.000000) scale(0.100000,-0.100000)" fill="#000000" stroke="none"><path d="M2645 3764 c-348 -54 -591 -236 -699 -525 -40 -107 -63 -268 -57 -396 l1 -33 58 0 c227 0 438 68 588 189 170 138 287 398 301 669 l6 112 -54 -1 c-30 -1 -94 -7 -144 -15z"></path><path d="M1013 2654 c-287 -63 -535 -266 -639 -524 -58 -143 -68 -200 -68 -420 -1 -220 6 -278 55 -468 89 -349 290 -684 610 -1016 119 -124 181 -165 290 -191 144 -34 287 -10 392 65 86 62 139 82 216 82 80 1 127 -12 248 -64 191 -81 351 -90 516 -28 209 78 507 414 678 766 119 244 177 476 186 740 9 253 -23 438 -103 597 -89 178 -197 283 -378 368 -113 52 -227 79 -371 86 -171 8 -225 -10 -465 -152 -146 -86 -212 -109 -298 -103 -82 6 -134 28 -264 113 -129 85 -223 132 -300 150 -77 18 -221 18 -305 -1z m250 -410 c42 -14 125 -95 779 -765 403 -412 740 -762 750 -777 10 -15 23 -44 28 -64 20 -71 -37 -148 -109 -148 -77 1 -116 31 -381 294 l-255 253 -73 11 c-40 7 -92 22 -115 33 -27 14 -181 160 -429 407 l-386 385 -11 62 c-14 78 -14 179 -1 227 6 20 26 50 46 67 41 36 84 40 157 15z m1213 -9 c-3 -8 -64 -117 -136 -241 -72 -125 -125 -223 -118 -217 60 48 461 333 465 330 2 -3 -62 -99 -143 -213 -81 -115 -155 -221 -166 -236 -14 -20 50 16 223 123 132 82 244 148 247 145 8 -8 -409 -430 -432 -438 -12 -3 -54 -6 -93 -7 -126 -2 -216 46 -268 140 -24 45 -29 65 -28 119 0 36 5 75 9 87 10 24 422 423 437 423 5 0 7 -7 3 -15z m-956 -1490 l-260 -260 -49 1 c-115 4 -165 49 -141 128 10 34 58 87 273 304 l262 262 87 -87 88 -88 -260 -260z"></path></g></svg>