<svg xmlns="http://www.w3.org/2000/svg" width="512.000000pt" height="512.000000pt" viewBox="0 0 512.000000 512.000000" preserveAspectRatio="xMidYMid meet"><metadata>Created by potrace 1.16, written by Peter Selinger 2001-2019</metadata><g transform="translate(0.000000,512.000000) scale(0.100000,-0.100000)" fill="#000000" stroke="none"><path d="M2486 4584 c-21 -21 -26 -36 -26 -74 0 -38 5 -53 26 -74 21 -21 36 -26 74 -26 38 0 53 5 74 26 21 21 26 36 26 74 0 38 -5 53 -26 74 -21 21 -36 26 -74 26 -38 0 -53 -5 -74 -26z"></path><path d="M1990 4531 c-630 -181 -1400 -737 -1916 -1382 -68 -85 -74 -97 -74 -139 0 -43 6 -54 86 -154 275 -342 631 -672 994 -918 428 -291 853 -466 1254 -519 183 -24 601 2 764 47 l22 6 0 -154 c0 -154 0 -155 26 -182 l27 -26 273 0 274 0 0 -274 0 -273 26 -27 27 -26 347 0 347 0 27 26 26 27 0 273 0 274 274 0 273 0 27 26 26 27 0 347 0 347 -26 27 -27 26 -273 0 -274 0 0 191 0 192 153 156 c163 167 301 324 391 444 49 64 56 80 56 118 0 41 -7 54 -74 138 -185 231 -412 460 -668 673 -421 351 -873 606 -1259 712 -120 33 -141 33 -181 -3 -28 -25 -33 -36 -33 -75 0 -68 27 -89 158 -126 483 -136 1035 -495 1523 -992 128 -129 294 -316 294 -330 0 -14 -170 -211 -306 -355 l-136 -143 -332 0 -333 0 -27 -26 -26 -27 0 -273 0 -274 -274 0 -273 0 -27 -26 c-24 -25 -26 -33 -26 -110 l0 -83 -37 -11 c-159 -45 -438 -70 -636 -58 -587 35 -1293 426 -1913 1059 -126 130 -294 317 -294 329 0 15 179 210 329 360 498 497 1007 825 1489 960 130 37 157 58 157 126 0 39 -5 50 -33 75 -40 36 -67 36 -192 0z m2330 -2495 l0 -273 26 -27 27 -26 273 0 274 0 0 -200 0 -200 -274 0 -273 0 -27 -26 -26 -27 0 -273 0 -274 -200 0 -200 0 0 274 0 273 -26 27 -27 26 -273 0 -274 0 0 200 0 200 274 0 273 0 27 26 26 27 0 273 0 274 200 0 200 0 0 -274z"></path><path d="M2360 3996 c-305 -64 -564 -264 -700 -540 -79 -160 -95 -237 -95 -446 0 -209 16 -286 95 -446 142 -287 420 -494 733 -544 110 -18 330 -8 432 19 308 83 582 339 685 641 68 201 68 459 0 660 -103 302 -376 557 -685 641 -102 27 -364 36 -465 15z m389 -217 c154 -35 317 -137 423 -265 62 -74 142 -237 162 -331 21 -93 20 -254 0 -346 -37 -166 -152 -348 -286 -450 -144 -110 -312 -168 -488 -168 -127 0 -224 23 -345 81 -172 84 -281 193 -365 365 -59 122 -80 212 -80 345 0 133 21 223 80 345 84 172 193 281 365 365 178 87 337 104 534 59z"></path><path d="M2423 3391 c-105 -39 -180 -107 -231 -211 -25 -50 -27 -65 -27 -170 0 -107 2 -119 29 -175 38 -77 114 -153 191 -191 56 -27 68 -29 175 -29 107 0 119 2 175 29 77 38 153 114 191 191 27 56 29 68 29 175 0 107 -2 119 -29 175 -38 77 -114 153 -191 190 -52 26 -73 30 -160 33 -79 2 -111 -2 -152 -17z m225 -210 c67 -34 102 -93 102 -171 0 -111 -79 -190 -190 -190 -111 0 -190 79 -190 190 0 111 77 189 188 190 33 0 67 -7 90 -19z"></path></g></svg>