<svg xmlns="http://www.w3.org/2000/svg" width="512.000000pt" height="512.000000pt" viewBox="0 0 512.000000 512.000000" preserveAspectRatio="xMidYMid meet"><metadata>Created by potrace 1.16, written by Peter Selinger 2001-2019</metadata><g transform="translate(0.000000,512.000000) scale(0.100000,-0.100000)" fill="#000000" stroke="none"><path d="M1602 5027 c-29 -31 -29 -79 1 -110 12 -14 507 -321 1099 -683 769 -469 1100 -677 1155 -724 186 -158 323 -393 379 -650 11 -49 17 -124 17 -215 l1 -140 -237 -1181 c-250 -1245 -246 -1218 -198 -1243 30 -16 76 -13 101 7 19 16 48 149 257 1187 229 1140 235 1174 240 1320 7 181 -10 308 -62 463 -91 271 -265 505 -492 659 -48 33 -556 346 -1129 696 -1119 685 -1084 666 -1132 614z"></path><path d="M1426 4478 c-34 -29 -39 -90 -9 -118 21 -21 1363 -869 1420 -899 93 -47 223 -51 338 -11 110 39 204 12 255 -72 51 -84 34 -152 -62 -256 -68 -73 -93 -116 -132 -224 -23 -63 -48 -92 -99 -117 -55 -27 -109 -27 -165 0 -56 27 -90 79 -109 166 -8 37 -33 106 -56 152 -74 152 -93 166 -847 642 -703 443 -700 441 -751 400 -33 -26 -33 -95 -1 -122 13 -10 314 -202 670 -426 443 -279 663 -424 698 -459 63 -62 95 -122 129 -245 41 -147 96 -215 220 -270 59 -26 176 -31 240 -10 101 33 187 115 220 209 37 104 52 130 118 200 95 101 112 141 112 267 0 91 -3 105 -29 158 -57 111 -166 183 -293 194 -56 4 -82 0 -148 -21 -87 -28 -153 -33 -206 -14 -19 6 -347 209 -729 451 -384 242 -709 441 -726 444 -23 4 -38 -1 -58 -19z"></path><path d="M726 3759 c-20 -16 -26 -29 -26 -61 0 -37 7 -47 88 -130 336 -346 928 -730 1542 -1002 57 -26 105 -48 107 -50 2 -1 -18 -47 -43 -101 -59 -127 -111 -282 -135 -406 -22 -114 -25 -302 -7 -395 16 -83 13 -298 -6 -439 -24 -170 -77 -412 -136 -613 -27 -96 -50 -182 -50 -193 0 -57 98 -91 139 -50 22 22 62 146 115 351 104 407 138 732 101 970 -19 121 -19 186 0 296 24 142 78 297 160 461 102 204 103 201 -91 284 -65 28 -209 95 -319 149 -494 243 -912 524 -1216 818 -150 144 -169 153 -223 111z"></path><path d="M3695 2985 c-28 -10 -67 -42 -133 -112 -117 -123 -125 -137 -120 -223 4 -76 34 -127 91 -157 47 -24 320 -56 369 -43 47 13 106 64 124 107 29 67 19 123 -42 240 -62 120 -112 176 -170 192 -50 14 -70 13 -119 -4z m133 -253 c32 -62 48 -103 43 -111 -7 -11 -28 -11 -117 -1 -117 14 -154 23 -154 40 0 15 151 170 165 170 7 0 36 -44 63 -98z"></path><path d="M2975 2457 c-64 -21 -97 -42 -141 -89 -64 -66 -87 -119 -92 -216 -5 -99 9 -147 75 -240 54 -76 72 -118 84 -193 8 -52 -1 -117 -86 -622 -52 -311 -95 -578 -95 -594 0 -40 36 -73 81 -73 72 0 68 -13 174 610 87 512 96 574 92 660 -6 118 -35 200 -109 306 -47 67 -52 80 -52 127 0 73 29 118 100 153 61 30 75 28 193 -21 64 -27 103 -31 226 -25 72 3 112 -14 151 -65 28 -37 41 -104 30 -150 -4 -15 -46 -68 -94 -119 -130 -136 -189 -233 -236 -386 -26 -87 -186 -1006 -186 -1073 0 -53 29 -79 82 -75 30 2 46 10 59 28 13 18 41 161 99 505 45 264 86 500 92 525 5 25 32 91 59 147 42 87 63 117 142 200 109 115 120 131 143 208 44 152 -30 316 -174 387 -64 32 -72 33 -187 33 -111 1 -124 3 -180 30 -70 34 -184 44 -250 22z"></path></g></svg>