<svg xmlns="http://www.w3.org/2000/svg" width="512.000000pt" height="512.000000pt" viewBox="0 0 512.000000 512.000000" preserveAspectRatio="xMidYMid meet"><metadata>Created by potrace 1.16, written by Peter Selinger 2001-2019</metadata><g transform="translate(0.000000,512.000000) scale(0.100000,-0.100000)" fill="#000000" stroke="none"><path d="M2812 5041 c-40 -10 -112 -38 -160 -61 -72 -36 -104 -60 -183 -139 -83 -84 -102 -109 -142 -191 -60 -125 -77 -201 -77 -337 0 -162 40 -302 120 -417 l31 -45 -28 -6 c-215 -47 -395 -147 -543 -302 -126 -131 -202 -256 -253 -419 -41 -130 -49 -224 -45 -545 3 -276 5 -297 26 -349 12 -30 22 -58 22 -62 0 -5 -16 -8 -36 -8 -87 0 -238 -59 -320 -125 l-40 -33 -80 76 c-131 128 -267 182 -454 182 -193 0 -325 -55 -460 -190 -93 -93 -145 -180 -174 -296 -21 -81 -21 -247 0 -328 22 -86 76 -192 130 -254 l46 -52 -52 -57 c-56 -61 -99 -138 -124 -222 -13 -45 -16 -110 -16 -380 0 -303 1 -328 19 -355 10 -15 32 -37 47 -47 28 -18 96 -19 2493 -19 2436 0 2464 0 2496 20 66 41 67 47 63 425 -3 383 -3 383 -88 514 l-40 61 37 48 c20 26 48 72 62 102 23 50 26 66 26 180 0 122 -1 127 -34 195 -45 92 -124 171 -216 216 l-70 34 -189 3 -188 4 7 26 c4 15 10 158 12 317 l4 290 40 23 c260 150 297 533 71 733 -57 50 -157 98 -220 106 -44 5 -51 9 -76 50 -42 65 -167 195 -245 252 -37 28 -104 68 -147 90 -76 38 -222 91 -250 91 -19 0 -18 3 16 54 80 119 120 258 120 420 0 136 -22 226 -82 346 -34 69 -61 103 -138 180 -77 78 -111 104 -180 138 -120 60 -218 82 -354 81 -71 0 -138 -7 -184 -18z m371 -328 c90 -43 177 -129 220 -220 30 -64 32 -74 32 -183 0 -109 -2 -119 -32 -183 -43 -91 -129 -177 -220 -220 -64 -30 -74 -32 -183 -32 -109 0 -119 2 -183 32 -91 43 -177 129 -220 220 -30 64 -32 74 -32 183 0 109 2 119 32 183 37 78 125 172 193 207 81 42 120 50 225 47 89 -2 108 -6 168 -34z m263 -1163 c114 -12 229 -48 313 -97 81 -48 210 -167 196 -182 -5 -5 -196 -118 -424 -249 -250 -144 -432 -257 -459 -282 l-44 -42 -62 29 c-61 28 -62 28 -293 31 l-233 3 0 92 c0 71 -4 101 -19 127 -57 108 -219 108 -273 0 -15 -30 -18 -64 -18 -220 0 -204 7 -233 63 -274 27 -20 45 -21 325 -26 274 -5 300 -7 331 -25 53 -31 76 -69 76 -125 0 -56 -23 -94 -76 -125 -32 -19 -52 -20 -419 -20 -349 0 -389 2 -432 18 -58 22 -129 98 -146 155 -8 26 -12 126 -12 291 0 307 9 362 82 511 44 90 63 116 137 190 47 47 115 102 151 123 80 46 202 86 295 97 103 11 835 11 941 0z m881 -520 c41 -25 63 -68 63 -123 0 -80 -11 -89 -429 -330 -242 -140 -392 -232 -405 -250 -20 -27 -21 -42 -24 -340 -3 -344 -1 -356 61 -401 28 -20 42 -21 570 -26 535 -5 542 -5 577 -27 46 -28 70 -71 70 -123 0 -52 -24 -95 -70 -123 l-35 -22 -1535 -3 c-936 -1 -1559 1 -1597 7 -79 12 -128 36 -178 86 -55 54 -78 107 -83 187 -10 161 90 281 255 308 33 6 384 10 814 10 l756 0 33 23 c66 44 70 65 70 325 0 246 3 264 49 306 12 11 223 136 469 278 404 233 451 258 492 258 27 0 58 -8 77 -20z m-197 -880 c0 -113 -4 -170 -14 -193 -38 -90 -155 -118 -224 -54 -41 38 -52 71 -52 160 l0 84 138 81 c75 44 140 80 145 81 4 0 7 -71 7 -159z m-3354 -221 c77 -29 164 -116 193 -193 28 -76 28 -176 0 -251 -25 -68 -103 -151 -174 -185 -72 -36 -189 -40 -269 -10 -79 30 -166 116 -195 194 -28 76 -28 176 0 251 29 77 114 164 189 193 75 29 180 29 256 1z m3894 -998 c62 -32 88 -58 118 -116 25 -48 26 -58 30 -252 l4 -203 -2262 0 -2262 0 4 203 c4 187 6 205 27 247 42 81 101 126 186 141 22 4 956 6 2075 5 l2035 -1 45 -24z"></path></g></svg>