<svg xmlns="http://www.w3.org/2000/svg" width="512.000000pt" height="512.000000pt" viewBox="0 0 512.000000 512.000000" preserveAspectRatio="xMidYMid meet"><metadata>Created by potrace 1.16, written by Peter Selinger 2001-2019</metadata><g transform="translate(0.000000,512.000000) scale(0.100000,-0.100000)" fill="#000000" stroke="none"><path d="M2195 5114 c-504 -75 -910 -365 -1132 -809 -110 -219 -144 -364 -152 -647 l-6 -207 -35 -23 c-50 -34 -97 -101 -116 -165 -13 -43 -15 -85 -12 -182 4 -112 7 -132 31 -177 32 -64 103 -127 164 -148 28 -10 81 -16 133 -16 l86 0 12 -60 c72 -346 312 -689 620 -883 l62 -39 0 -102 c-1 -232 -39 -279 -288 -352 -157 -47 -182 -63 -182 -116 0 -36 40 -78 75 -78 37 0 291 78 348 107 133 66 207 207 207 390 0 58 2 64 18 58 113 -49 307 -81 435 -71 75 6 236 40 288 61 15 5 17 -6 21 -97 3 -85 8 -113 30 -160 33 -71 102 -146 165 -180 27 -14 226 -78 443 -143 217 -64 424 -131 460 -148 46 -21 87 -53 141 -106 123 -124 168 -244 169 -451 0 -121 -15 -162 -71 -195 -31 -18 -55 -20 -291 -23 l-258 -3 0 261 0 261 -25 24 c-55 56 -135 15 -135 -70 l0 -45 -970 0 -970 0 0 49 c0 42 -4 53 -26 70 -30 24 -52 26 -87 10 -43 -20 -47 -45 -47 -309 l0 -250 -277 0 c-153 0 -296 5 -318 10 -25 6 -52 22 -72 44 l-33 36 0 138 c0 214 38 320 160 442 71 72 148 117 255 150 131 40 152 50 164 76 16 36 14 58 -11 89 -20 25 -25 27 -72 22 -72 -8 -244 -68 -311 -108 -124 -74 -239 -207 -293 -336 -43 -102 -52 -159 -52 -333 0 -153 2 -169 24 -215 29 -61 86 -117 146 -144 43 -20 64 -21 542 -21 l497 0 20 26 c27 34 27 64 0 98 -19 25 -25 26 -115 26 l-94 0 0 135 0 135 970 0 970 0 0 -135 0 -135 -754 0 -755 0 -20 -26 c-12 -15 -21 -37 -21 -49 0 -12 9 -34 21 -49 l20 -26 1106 0 c793 0 1116 3 1143 11 64 19 131 78 165 144 30 59 30 59 30 229 0 151 -3 180 -23 246 -62 196 -182 345 -352 434 -41 22 -219 81 -484 160 -446 134 -463 141 -514 219 -25 38 -27 48 -30 171 l-3 131 79 52 c111 73 142 104 142 142 0 43 -39 81 -81 81 -22 0 -48 -12 -84 -40 -142 -110 -312 -191 -450 -215 -110 -19 -160 -19 -269 0 -102 18 -176 47 -301 115 -341 189 -572 502 -651 880 -21 101 -30 486 -15 602 25 187 88 353 192 503 68 99 218 241 320 304 434 267 986 204 1344 -154 142 -142 241 -312 292 -503 25 -90 27 -116 31 -356 4 -250 -3 -354 -30 -463 l-10 -42 -36 27 c-31 24 -44 27 -112 27 -68 0 -80 -3 -113 -28 -60 -46 -80 -95 -85 -217 -8 -188 39 -300 187 -448 100 -101 168 -141 291 -172 46 -12 93 -26 105 -32 11 -6 173 -162 360 -348 l340 -338 55 -11 c141 -28 250 61 250 203 0 32 -7 71 -16 89 -9 18 -259 276 -557 574 l-541 542 16 53 c9 29 22 78 29 109 l12 57 101 4 c114 5 159 22 221 83 69 69 79 103 83 265 5 187 -10 233 -99 313 l-59 54 0 134 c-1 271 -52 503 -157 714 -36 72 -51 85 -93 85 -43 0 -80 -33 -80 -72 0 -14 17 -63 39 -109 87 -190 119 -328 128 -561 l6 -168 -44 0 -45 0 -27 97 c-34 119 -108 276 -179 380 -29 43 -93 119 -143 168 -214 215 -496 345 -789 364 l-101 7 40 18 c202 91 528 166 720 166 l65 0 106 -102 c93 -90 110 -102 141 -102 45 0 73 32 73 83 0 33 -10 46 -107 141 -205 201 -448 332 -733 395 -73 16 -422 29 -495 19z m445 -174 c128 -27 310 -92 310 -110 0 -4 -28 -11 -62 -14 -88 -10 -307 -68 -424 -112 -139 -52 -278 -123 -536 -275 -267 -158 -308 -187 -416 -293 -169 -165 -279 -349 -336 -566 l-23 -85 -41 -3 -42 -3 0 149 c0 175 17 284 65 429 169 506 632 868 1153 902 110 7 271 -2 352 -19z m-1510 -1685 l0 -65 -44 0 c-61 0 -96 -29 -96 -80 0 -51 35 -80 96 -80 l44 0 0 -65 0 -65 -64 0 c-49 0 -71 5 -97 23 -54 36 -69 77 -69 187 0 110 15 151 69 187 26 18 48 23 97 23 l64 0 0 -65z m2658 51 c15 -8 38 -26 52 -41 24 -26 25 -32 25 -156 l0 -129 -37 -37 c-36 -36 -42 -38 -113 -41 l-75 -4 0 66 0 66 46 0 c57 0 78 11 94 50 25 61 -19 110 -100 110 l-40 0 0 65 0 65 60 0 c34 0 73 -6 88 -14z m-163 -1076 l320 -320 -32 -32 -32 -32 -43 40 c-63 58 -104 79 -188 99 -121 29 -157 49 -250 141 -113 110 -142 166 -148 284 -4 93 7 140 35 140 10 0 158 -140 338 -320z m668 -668 c243 -243 251 -255 199 -290 -23 -15 -28 -10 -260 221 l-237 236 30 31 c16 16 31 30 34 30 4 0 109 -103 234 -228z"></path><path d="M2353 4180 c-33 -13 -43 -42 -43 -119 0 -86 18 -111 78 -111 57 0 76 26 80 110 4 66 3 71 -26 100 -31 31 -51 35 -89 20z"></path><path d="M2332 3787 c-19 -20 -22 -35 -22 -99 0 -71 2 -78 26 -97 30 -24 52 -26 88 -10 35 16 49 58 44 130 -4 49 -9 66 -27 80 -32 26 -82 24 -109 -4z"></path><path d="M2363 3423 c-38 -7 -53 -40 -53 -120 0 -89 17 -113 79 -113 58 0 81 33 81 116 0 51 -4 67 -22 88 -25 27 -51 35 -85 29z"></path><path d="M1550 3130 c-30 -30 -27 -85 6 -115 71 -66 220 -105 326 -86 72 12 176 59 206 92 47 49 14 129 -52 129 -18 0 -61 -14 -95 -32 -48 -25 -73 -31 -121 -31 -48 0 -73 6 -121 31 -72 37 -120 41 -149 12z"></path><path d="M2685 3130 c-25 -27 -24 -83 0 -110 30 -33 135 -79 205 -91 83 -13 174 1 256 41 76 37 96 59 96 105 0 80 -61 96 -164 43 -51 -26 -75 -32 -125 -32 -50 0 -73 6 -122 32 -71 37 -120 41 -146 12z"></path><path d="M2336 3019 c-24 -19 -26 -26 -26 -99 0 -73 2 -80 26 -99 33 -26 75 -27 104 -3 18 14 24 32 28 75 2 31 1 68 -2 82 -16 62 -80 84 -130 44z"></path><path d="M2110 2654 c-47 -49 -52 -59 -46 -87 8 -42 40 -67 84 -67 30 0 44 8 84 50 54 57 61 90 27 134 -16 20 -29 26 -58 26 -33 0 -45 -7 -91 -56z"></path><path d="M2519 2691 c-16 -13 -23 -29 -23 -55 0 -30 8 -45 49 -86 41 -42 55 -50 85 -50 47 0 80 33 80 80 0 26 -10 43 -49 81 -39 40 -55 49 -83 49 -20 0 -46 -8 -59 -19z"></path><path d="M1855 2400 c-41 -41 -49 -56 -49 -86 0 -46 31 -74 82 -74 30 0 44 8 84 50 39 40 48 57 48 85 0 47 -29 75 -78 75 -32 0 -45 -7 -87 -50z"></path><path d="M2771 2424 c-33 -42 -27 -69 30 -130 45 -47 57 -54 90 -54 29 0 42 6 58 26 35 44 28 80 -28 135 -42 43 -53 49 -89 49 -32 0 -45 -6 -61 -26z"></path><path d="M2120 2280 c-29 -29 -27 -84 5 -116 63 -62 215 -103 323 -85 123 20 232 88 232 145 0 13 -9 35 -21 50 -28 36 -71 34 -148 -6 -50 -26 -74 -32 -124 -32 -52 0 -73 6 -122 32 -68 37 -116 41 -145 12z"></path></g></svg>