<svg xmlns="http://www.w3.org/2000/svg" width="512.000000pt" height="512.000000pt" viewBox="0 0 512.000000 512.000000" preserveAspectRatio="xMidYMid meet"><metadata>Created by potrace 1.16, written by Peter Selinger 2001-2019</metadata><g transform="translate(0.000000,512.000000) scale(0.100000,-0.100000)" fill="#000000" stroke="none"><path d="M2453 5094 c-24 -14 -54 -44 -68 -68 -25 -43 -25 -43 -25 -306 l0 -263 25 -43 c37 -63 95 -94 175 -94 80 0 138 31 175 94 l25 43 0 263 0 263 -25 43 c-37 63 -95 94 -176 94 -51 0 -73 -5 -106 -26z"></path><path d="M775 4441 c-73 -34 -115 -102 -115 -188 0 -77 28 -118 208 -295 142 -141 174 -168 212 -178 169 -46 306 91 260 260 -10 38 -37 70 -178 212 -100 102 -182 176 -207 188 -52 25 -127 26 -180 1z"></path><path d="M4164 4440 c-24 -12 -110 -91 -206 -188 -141 -142 -168 -174 -178 -212 -46 -169 91 -306 260 -260 38 10 70 37 212 178 102 100 176 182 188 207 37 77 18 187 -41 242 -59 54 -162 69 -235 33z"></path><path d="M2330 3954 c-685 -84 -1423 -470 -2144 -1122 -158 -143 -186 -183 -186 -266 0 -91 24 -129 161 -255 403 -371 791 -641 1214 -847 290 -141 510 -217 785 -271 126 -25 153 -27 400 -27 247 0 274 2 401 27 646 127 1311 496 1973 1095 161 146 186 182 186 272 0 90 -25 126 -186 272 -664 601 -1333 972 -1973 1095 -118 22 -167 26 -366 28 -126 2 -246 1 -265 -1z m345 -408 c185 -15 397 -112 557 -255 125 -113 239 -300 290 -476 20 -70 23 -102 23 -255 0 -205 -14 -270 -95 -435 -150 -309 -465 -527 -800 -553 -50 -4 -130 -4 -180 0 -335 26 -650 244 -800 553 -81 165 -95 230 -95 435 0 153 3 185 23 255 50 173 137 321 261 446 126 125 278 213 445 259 76 21 225 39 276 34 14 -2 57 -5 95 -8z m1410 -567 c197 -134 525 -395 525 -419 0 -12 -123 -118 -290 -248 -132 -102 -459 -326 -467 -319 -2 2 8 35 23 73 14 37 37 116 52 174 25 98 27 120 27 320 0 201 -2 222 -27 322 -15 60 -41 141 -56 182 l-29 74 56 -36 c31 -19 115 -75 186 -123z m-2841 75 c-14 -37 -37 -116 -52 -174 -25 -98 -27 -120 -27 -320 0 -200 2 -222 27 -320 15 -58 38 -137 52 -174 15 -38 25 -71 22 -73 -6 -7 -356 232 -467 319 -148 116 -289 237 -289 248 0 11 141 132 289 248 111 87 461 326 467 319 3 -2 -7 -35 -22 -73z"></path><path d="M2395 3141 c-205 -60 -367 -225 -420 -428 -20 -75 -19 -229 1 -306 53 -206 225 -378 430 -431 79 -20 228 -21 307 0 103 26 195 80 273 158 78 78 132 170 158 273 21 78 21 228 0 306 -54 208 -223 377 -431 431 -82 21 -240 20 -318 -3z m253 -410 c67 -34 102 -93 102 -171 0 -111 -79 -190 -190 -190 -111 0 -190 79 -190 190 0 111 77 189 188 190 33 0 67 -7 90 -19z"></path><path d="M1070 1338 c-45 -13 -361 -323 -390 -383 -35 -73 -21 -175 33 -234 55 -59 165 -78 242 -41 25 12 107 86 207 188 141 142 168 174 178 212 47 173 -95 308 -270 258z"></path><path d="M3879 1327 c-87 -46 -127 -144 -99 -247 10 -38 37 -70 178 -212 179 -181 217 -208 298 -208 119 1 204 87 204 207 0 77 -28 118 -208 295 -133 132 -175 168 -207 177 -63 17 -118 13 -166 -12z"></path><path d="M2453 774 c-24 -14 -54 -44 -68 -68 -25 -43 -25 -43 -25 -306 l0 -263 25 -43 c37 -63 95 -94 175 -94 80 0 138 31 175 94 l25 43 0 263 0 263 -25 43 c-37 63 -95 94 -176 94 -51 0 -73 -5 -106 -26z"></path></g></svg>