<svg xmlns="http://www.w3.org/2000/svg" width="512.000000pt" height="512.000000pt" viewBox="0 0 512.000000 512.000000" preserveAspectRatio="xMidYMid meet"><metadata>Created by potrace 1.16, written by Peter Selinger 2001-2019</metadata><g transform="translate(0.000000,512.000000) scale(0.100000,-0.100000)" fill="#000000" stroke="none"><path d="M2238 5105 c-458 -63 -869 -231 -1233 -504 -127 -96 -334 -297 -438 -426 -304 -377 -488 -811 -552 -1302 -20 -150 -20 -476 0 -626 60 -462 228 -874 504 -1242 96 -127 297 -334 426 -438 382 -308 853 -504 1337 -556 123 -14 435 -14 553 -1 462 51 905 227 1280 509 127 96 334 297 438 426 240 298 400 619 492 988 53 213 67 319 72 560 6 240 -4 369 -42 562 -39 197 -71 296 -105 327 -59 54 -153 44 -197 -21 -28 -42 -29 -84 -3 -170 10 -36 30 -122 44 -191 109 -546 12 -1118 -270 -1598 -357 -606 -939 -1001 -1649 -1118 -154 -26 -514 -26 -670 -1 -416 68 -789 232 -1105 485 -787 632 -1070 1708 -694 2645 228 568 678 1027 1237 1261 471 198 977 237 1452 114 66 -17 140 -33 165 -35 125 -10 188 144 94 229 -40 35 -336 106 -536 127 -132 15 -481 12 -600 -4z"></path><path d="M4165 4851 c-16 -10 -210 -199 -430 -420 l-400 -401 -3 -258 -3 -257 -439 -440 c-316 -316 -443 -449 -449 -472 -20 -70 23 -147 90 -162 79 -17 73 -22 543 448 l441 440 257 3 258 3 406 405 c223 223 412 417 420 432 31 58 4 140 -57 170 -29 15 -63 18 -236 18 l-203 0 0 203 c0 172 -3 207 -18 237 -31 63 -118 88 -177 51z m-52 -694 c33 -51 60 -60 184 -65 l115 -5 -248 -248 -249 -249 -162 0 -163 0 0 162 0 163 248 248 247 247 5 -113 c4 -84 10 -120 23 -140z"></path><path d="M2345 4345 c-401 -51 -763 -230 -1050 -520 -257 -259 -423 -579 -492 -948 -24 -130 -24 -485 0 -613 144 -761 705 -1322 1458 -1460 120 -22 373 -29 499 -15 659 76 1197 476 1459 1085 92 215 134 424 135 671 1 191 -4 213 -64 253 -29 19 -44 23 -84 19 -41 -4 -55 -11 -82 -39 l-31 -35 -6 -199 c-4 -165 -9 -217 -30 -304 -111 -466 -402 -835 -822 -1040 -495 -243 -1056 -202 -1525 111 -127 85 -316 273 -399 399 -312 470 -353 1031 -111 1525 182 372 499 649 892 780 168 55 235 66 451 72 191 5 200 6 227 30 75 63 56 174 -39 223 -36 19 -258 22 -386 5z"></path><path d="M2370 3575 c-346 -69 -642 -320 -760 -645 -101 -275 -87 -555 40 -815 206 -419 669 -644 1131 -549 305 62 566 266 704 549 70 142 95 239 102 386 l6 116 -35 38 c-85 93 -227 34 -228 -95 -2 -185 -94 -397 -229 -530 -253 -247 -620 -290 -929 -109 -73 44 -207 178 -251 251 -274 467 -14 1042 517 1144 41 8 95 14 120 14 91 0 149 63 139 149 -4 36 -13 52 -41 78 -35 33 -37 33 -128 32 -51 0 -122 -7 -158 -14z"></path></g></svg>