<svg xmlns="http://www.w3.org/2000/svg" width="980.000000pt" height="980.000000pt" viewBox="0 0 980.000000 980.000000" preserveAspectRatio="xMidYMid meet"><metadata>Created by potrace 1.16, written by Peter Selinger 2001-2019</metadata><g transform="translate(0.000000,980.000000) scale(0.100000,-0.100000)" fill="#000000" stroke="none"><path d="M5280 9010 c-177 -32 -315 -160 -350 -326 -7 -33 -10 -409 -8 -1149 l3 -1100 23 -59 c36 -95 90 -159 169 -198 l68 -33 435 -5 c328 -4 441 -8 457 -18 13 -7 161 -123 330 -258 l308 -246 5 198 c5 202 9 222 49 268 47 53 5 51 966 56 l890 5 50 27 c104 55 174 158 194 288 15 92 15 2136 0 2216 -31 167 -177 305 -355 334 -72 12 -3168 11 -3234 0z m2923 -541 c144 -40 180 -225 60 -316 l-36 -28 -1327 0 -1327 0 -37 29 c-40 30 -75 94 -76 136 0 77 55 154 127 177 51 16 2559 18 2616 2z m0 -720 c51 -14 101 -60 122 -111 32 -80 -2 -171 -80 -215 l-40 -23 -1303 0 c-1259 0 -1304 1 -1340 19 -145 74 -131 274 23 329 42 15 2565 16 2618 1z m-1215 -734 c124 -75 117 -257 -12 -316 -39 -17 -80 -19 -709 -19 -645 0 -669 1 -706 20 -131 66 -131 253 1 319 43 21 44 21 718 19 652 -3 676 -4 708 -23z"></path><path d="M3239 6960 c-73 -22 -125 -97 -123 -180 1 -71 24 -102 146 -193 616 -459 961 -1139 961 -1892 -1 -449 -111 -838 -350 -1237 -58 -97 -65 -113 -65 -163 -1 -100 75 -175 177 -175 77 0 118 29 181 126 353 547 494 1245 383 1894 -118 692 -480 1291 -1035 1710 -151 114 -199 133 -275 110z"></path><path d="M2812 6349 c-74 -37 -113 -121 -92 -200 17 -62 27 -75 120 -142 104 -75 268 -236 343 -337 369 -498 428 -1155 153 -1699 -30 -58 -70 -133 -90 -165 -28 -47 -36 -70 -36 -109 0 -102 76 -177 181 -177 102 0 145 48 263 285 129 260 184 460 207 751 52 649 -248 1316 -773 1715 -46 35 -99 72 -118 81 -46 24 -106 23 -158 -3z"></path><path d="M2399 5741 c-55 -34 -81 -84 -81 -151 1 -62 21 -100 74 -142 22 -18 70 -60 106 -93 203 -189 307 -445 288 -714 -10 -153 -39 -250 -122 -409 -59 -113 -64 -144 -35 -207 33 -72 86 -105 167 -105 88 0 143 53 222 213 99 200 138 385 129 606 -13 327 -125 594 -345 823 -194 202 -296 247 -403 179z"></path><path d="M1480 5042 c-73 -25 -113 -51 -178 -114 -58 -57 -120 -172 -142 -263 -16 -70 -14 -228 5 -300 69 -265 294 -427 515 -371 167 43 290 177 340 372 85 333 -118 678 -408 691 -56 2 -92 -2 -132 -15z"></path><path d="M8148 5047 c-159 -45 -292 -203 -333 -395 -19 -93 -19 -163 0 -257 81 -392 468 -544 725 -283 54 55 109 154 136 243 28 92 25 248 -6 349 -45 149 -147 270 -275 327 -62 27 -180 34 -247 16z"></path><path d="M1480 3613 c-98 -16 -233 -83 -313 -154 -65 -58 -134 -158 -168 -244 l-24 -60 -5 -1135 -5 -1135 -24 -42 c-14 -24 -28 -43 -33 -43 -4 0 -8 -4 -8 -10 0 -7 239 -10 697 -10 l696 0 -21 23 c-52 55 -52 53 -52 670 l0 573 -27 21 c-270 202 -428 327 -427 337 2 16 196 276 206 276 10 0 743 -557 817 -622 24 -21 60 -42 80 -48 50 -14 1153 -13 1203 0 148 41 185 242 62 336 l-37 29 -536 5 -536 5 -46 27 c-26 15 -59 42 -74 60 -15 18 -211 222 -434 453 -379 392 -407 424 -423 475 -15 46 -26 61 -70 94 -119 86 -245 127 -387 125 -47 -1 -97 -4 -111 -6z"></path><path d="M8120 3609 c-90 -18 -207 -74 -275 -132 -29 -25 -44 -48 -53 -81 -13 -51 21 -13 -521 -576 -417 -434 -398 -416 -459 -429 -35 -7 -219 -11 -548 -11 -473 0 -496 -1 -534 -20 -131 -67 -127 -269 6 -336 37 -18 71 -19 619 -22 387 -2 592 0 616 8 20 5 68 36 106 68 38 31 167 131 287 222 120 91 282 214 359 274 155 118 203 145 259 146 96 0 177 -81 178 -179 0 -80 -24 -106 -288 -306 l-247 -187 -5 -586 c-3 -323 -9 -597 -14 -609 l-8 -23 652 0 c618 0 652 1 644 18 -5 9 -11 526 -14 1147 l-5 1130 -22 65 c-74 215 -263 379 -481 420 -65 12 -188 11 -252 -1z"></path><path d="M2580 1326 c0 -416 -1 -439 -20 -476 -11 -21 -24 -41 -30 -45 -33 -20 9 -25 230 -25 132 0 240 3 240 6 0 3 -12 22 -27 41 l-28 36 -3 388 -3 388 -57 6 c-108 12 -180 39 -279 103 l-23 14 0 -436z"></path><path d="M7200 1724 c-66 -42 -151 -69 -243 -79 l-67 -7 0 -363 c0 -292 -3 -371 -15 -404 l-14 -41 214 0 215 0 -13 28 c-9 19 -13 150 -17 464 l-5 437 -55 -35z"></path></g></svg>