<svg xmlns="http://www.w3.org/2000/svg" width="512.000000pt" height="512.000000pt" viewBox="0 0 512.000000 512.000000" preserveAspectRatio="xMidYMid meet"><metadata>Created by potrace 1.16, written by Peter Selinger 2001-2019</metadata><g transform="translate(0.000000,512.000000) scale(0.100000,-0.100000)" fill="#000000" stroke="none"><path d="M2110 4290 c0 -456 -3 -830 -6 -830 -3 0 -19 9 -35 21 -42 30 -166 85 -225 99 l-52 13 -17 61 c-22 79 -64 168 -113 235 l-39 55 23 66 c13 36 28 104 33 151 48 424 -271 781 -699 782 -216 0 -378 -74 -574 -263 -209 -201 -337 -440 -390 -729 -23 -121 -23 -881 0 -1002 38 -206 123 -407 238 -559 76 -101 216 -239 304 -299 141 -95 261 -134 422 -134 427 0 747 358 699 782 -5 46 -20 114 -32 150 l-23 66 53 78 c29 43 65 114 80 158 15 43 32 79 37 79 23 0 130 -68 172 -108 57 -57 89 -107 117 -181 20 -53 21 -80 25 -491 l3 -435 -63 -18 c-212 -61 -390 -201 -473 -372 -48 -99 -65 -180 -65 -315 0 -203 52 -340 179 -473 83 -87 222 -169 364 -213 l57 -18 0 -323 0 -323 450 0 450 0 0 323 0 323 58 18 c258 81 439 242 512 456 31 90 39 304 16 405 -57 242 -254 434 -524 512 l-63 18 3 435 c4 411 5 438 25 491 43 114 119 203 223 258 32 17 62 31 66 31 5 0 22 -36 37 -79 15 -44 51 -115 80 -158 l53 -78 -22 -65 c-133 -387 86 -802 481 -911 100 -27 258 -30 355 -5 150 37 298 133 447 290 185 193 302 425 347 685 23 138 23 864 0 1002 -48 279 -181 528 -390 729 -196 189 -358 263 -574 263 -428 -1 -747 -358 -699 -782 5 -47 20 -115 33 -151 l23 -66 -43 -60 c-46 -62 -94 -167 -114 -245 -11 -45 -11 -45 -77 -63 -66 -17 -165 -62 -215 -97 -14 -11 -29 -19 -32 -19 -3 0 -6 374 -6 830 l0 830 -150 0 -150 0 0 -1510 0 -1510 -150 0 -150 0 0 1510 0 1510 -150 0 -150 0 0 -830z m-1058 339 c161 -34 292 -170 317 -331 15 -90 -2 -160 -71 -301 l-62 -128 44 -37 c80 -64 139 -133 172 -200 31 -64 33 -72 33 -182 0 -110 -2 -118 -33 -182 -33 -67 -92 -136 -172 -200 l-44 -37 62 -128 c43 -88 66 -148 71 -188 44 -307 -285 -549 -559 -410 -113 57 -247 183 -334 313 -96 145 -151 307 -166 492 -12 148 -12 532 0 680 20 244 112 454 273 627 106 113 218 187 317 209 71 16 88 16 152 3z m3210 -14 c154 -53 353 -252 448 -449 94 -196 116 -361 107 -821 -6 -314 -14 -370 -68 -520 -57 -157 -168 -313 -301 -426 -173 -145 -329 -172 -490 -87 -146 77 -233 248 -208 406 6 35 33 106 72 185 l62 128 -44 37 c-80 64 -139 133 -172 200 -31 64 -33 72 -33 182 0 110 2 118 33 182 33 67 92 136 172 200 l44 37 -62 128 c-39 79 -66 150 -72 186 -31 195 105 393 305 444 56 14 148 9 207 -12z m-1542 -2829 c266 -13 473 -114 547 -265 23 -47 28 -71 31 -156 5 -134 -17 -197 -97 -275 -89 -87 -214 -138 -418 -170 l-73 -12 0 -304 0 -304 -150 0 -150 0 0 304 0 304 -72 12 c-277 44 -442 139 -497 285 -19 51 -22 75 -19 160 3 85 8 109 31 156 76 157 277 250 572 267 72 5 144 7 160 5 17 -1 77 -5 135 -7z"></path></g></svg>