<svg xmlns="http://www.w3.org/2000/svg" width="200.000000pt" height="200.000000pt" viewBox="0 0 200.000000 200.000000" preserveAspectRatio="xMidYMid meet"><metadata>Created by potrace 1.16, written by Peter Selinger 2001-2019</metadata><g transform="translate(0.000000,200.000000) scale(0.100000,-0.100000)" fill="#000000" stroke="none"><path d="M880 1899 c-84 -38 -149 -123 -165 -216 -16 -98 39 -222 120 -271 24 -15 45 -30 45 -33 0 -3 -12 -12 -27 -20 -20 -10 -80 -16 -198 -19 l-170 -5 0 -420 0 -420 86 -3 85 -3 10 -32 c6 -21 20 -37 41 -47 l33 -15 0 -123 c0 -143 11 -174 64 -192 43 -14 77 -5 108 27 21 23 23 34 26 159 l4 134 54 0 54 0 0 -131 c0 -72 5 -139 10 -150 29 -53 121 -61 160 -12 18 23 20 40 20 157 l0 131 33 15 c18 8 39 29 47 47 l15 33 86 0 c70 0 88 3 93 16 8 20 8 798 0 818 -5 14 -30 16 -170 16 -132 0 -170 3 -199 17 -19 9 -35 19 -35 22 0 3 21 18 45 33 106 64 151 221 100 344 -21 50 -85 115 -140 140 -66 31 -170 33 -235 3z m381 -674 c48 -70 51 -94 56 -387 l5 -278 -316 0 -316 0 0 273 c0 149 5 288 10 307 5 20 23 57 40 83 l30 47 232 -2 232 -3 27 -40z"></path><path d="M967 1233 c-4 -3 -7 -21 -7 -39 l0 -33 -91 -3 c-75 -2 -94 -6 -103 -20 -8 -13 -8 -23 0 -35 9 -15 28 -19 103 -21 89 -3 91 -3 91 -27 0 -24 -2 -24 -87 -27 l-88 -3 -3 -29 c-5 -39 10 -46 101 -46 l77 0 0 -30 0 -30 -79 0 c-85 0 -97 -6 -87 -46 6 -23 10 -24 86 -24 79 0 80 0 80 -25 0 -20 -5 -25 -25 -25 -67 0 -123 -48 -111 -95 7 -28 71 -61 137 -70 108 -16 230 40 215 98 -8 34 -43 57 -96 64 -34 5 -40 9 -40 29 0 23 3 24 80 24 76 0 80 1 86 24 10 40 -2 46 -87 46 l-79 0 0 35 0 34 88 3 87 3 0 30 0 30 -87 3 c-86 3 -88 3 -88 27 0 25 2 25 81 25 86 0 119 10 119 38 0 34 -21 42 -112 42 l-88 0 0 28 c0 15 -5 33 -12 40 -13 13 -50 16 -61 5z"></path></g></svg>