<svg xmlns="http://www.w3.org/2000/svg" width="1920.000000pt" height="1920.000000pt" viewBox="0 0 1920.000000 1920.000000" preserveAspectRatio="xMidYMid meet"><metadata>Created by potrace 1.16, written by Peter Selinger 2001-2019</metadata><g transform="translate(0.000000,1920.000000) scale(0.100000,-0.100000)" fill="#000000" stroke="none"><path d="M5632 17690 c-301 -41 -543 -251 -633 -550 -21 -71 -23 -96 -27 -452 l-3 -377 -1142 -4 c-1251 -3 -1187 0 -1354 -63 -310 -116 -538 -379 -619 -714 -18 -72 -19 -335 -22 -6540 -2 -4364 1 -6502 8 -6580 16 -187 66 -332 165 -480 51 -75 181 -205 257 -258 76 -52 205 -110 313 -139 l100 -28 6925 0 6925 0 100 28 c108 29 237 87 313 139 76 53 206 183 257 258 99 148 149 293 165 480 7 78 10 2216 8 6580 -3 6205 -4 6468 -22 6540 -81 335 -309 598 -619 714 -168 63 -103 60 -1354 63 l-1142 4 -3 377 c-4 356 -6 381 -27 452 -62 207 -198 374 -382 470 -112 58 -210 82 -344 82 -137 1 -218 -18 -345 -80 -82 -39 -108 -59 -191 -141 -78 -79 -103 -111 -137 -181 -80 -163 -85 -196 -90 -612 l-4 -368 -3108 0 -3108 0 -4 368 c-5 416 -10 449 -90 612 -34 70 -59 102 -137 181 -83 82 -109 102 -191 141 -144 70 -295 97 -438 78z m10493 -10775 l0 -4170 -6525 0 -6525 0 -3 4160 c-1 2288 0 4166 3 4173 3 10 1314 12 6527 10 l6523 -3 0 -4170z"></path><path d="M6715 9868 c-3 -7 -4 -337 -3 -733 l3 -720 738 -3 737 -2 0 735 0 735 -735 0 c-579 0 -737 -3 -740 -12z"></path><path d="M8890 9145 l0 -735 735 0 735 0 0 735 0 735 -735 0 -735 0 0 -735z"></path><path d="M11070 9145 l0 -735 735 0 735 0 0 735 0 735 -735 0 -735 0 0 -735z"></path><path d="M13250 9145 l0 -735 735 0 735 0 0 735 0 735 -735 0 -735 0 0 -735z"></path><path d="M10108 7722 c-31 -11 -71 -29 -90 -42 -18 -13 -176 -165 -350 -339 l-317 -315 -80 77 c-111 108 -164 132 -296 132 -89 0 -106 -3 -156 -27 -76 -38 -146 -109 -183 -188 -27 -58 -31 -75 -31 -155 0 -149 15 -172 307 -461 282 -280 280 -279 443 -279 169 0 146 -18 678 513 252 251 473 477 491 502 52 71 71 133 71 230 -1 103 -28 172 -101 250 -97 104 -254 145 -386 102z"></path><path d="M4480 6925 l0 -735 735 0 735 0 0 735 0 735 -735 0 -735 0 0 -735z"></path><path d="M6670 6925 l0 -735 738 2 737 3 3 733 2 732 -740 0 -740 0 0 -735z"></path><path d="M11052 6928 l3 -733 738 -3 737 -2 0 735 0 735 -740 0 -740 0 2 -732z"></path><path d="M13250 6925 l0 -735 735 0 735 0 0 735 0 735 -735 0 -735 0 0 -735z"></path><path d="M4492 5441 c-9 -6 -12 -162 -10 -737 l3 -729 733 -3 732 -2 -2 737 -3 738 -720 2 c-396 1 -726 -1 -733 -6z"></path><path d="M6687 5443 c-4 -3 -7 -336 -7 -740 l0 -733 735 0 735 0 -2 738 -3 737 -726 3 c-399 1 -729 -1 -732 -5z"></path><path d="M8875 5438 c-3 -7 -4 -339 -3 -738 l3 -725 735 0 735 0 0 735 0 735 -733 3 c-581 2 -734 0 -737 -10z"></path><path d="M11077 5443 c-4 -3 -7 -336 -7 -740 l0 -733 735 0 735 0 -2 738 -3 737 -726 2 c-399 2 -729 0 -732 -4z"></path></g></svg>