<svg xmlns="http://www.w3.org/2000/svg" width="512.000000pt" height="512.000000pt" viewBox="0 0 512.000000 512.000000" preserveAspectRatio="xMidYMid meet"><metadata>Created by potrace 1.16, written by Peter Selinger 2001-2019</metadata><g transform="translate(0.000000,512.000000) scale(0.100000,-0.100000)" fill="#000000" stroke="none"><path d="M22 5097 l-22 -23 2 -600 3 -599 125 -108 c69 -60 139 -117 155 -128 39 -25 80 -24 117 2 l30 22 146 -146 c81 -80 157 -148 168 -151 34 -10 75 11 137 72 l57 57 199 -199 200 -199 -29 -57 c-115 -229 -56 -443 148 -538 48 -22 71 -27 142 -26 81 0 93 3 243 63 86 34 157 64 157 67 0 5 -61 158 -65 162 -1 2 -67 -23 -146 -55 -175 -71 -226 -75 -286 -27 -86 69 -93 136 -28 274 49 103 55 147 29 208 -9 23 -91 113 -225 247 l-209 211 54 53 c62 62 81 98 71 138 -4 17 -63 85 -150 173 l-144 145 19 25 c11 15 20 41 20 63 0 34 -8 47 -58 100 -32 34 -172 184 -312 332 -139 149 -297 314 -349 368 -90 91 -98 97 -137 97 -29 0 -46 -6 -62 -23z m687 -860 c13 -17 -1 -34 -179 -212 l-193 -193 -78 67 -79 66 0 417 0 417 258 -272 c141 -150 263 -280 271 -290z m169 -340 l102 -102 -105 -105 -105 -105 -105 105 -105 105 102 102 c57 57 105 103 108 103 3 0 51 -46 108 -103z"></path><path d="M1556 4764 c-200 -39 -386 -134 -540 -275 -31 -28 -56 -56 -56 -63 0 -6 29 -37 64 -68 l64 -57 18 21 c48 54 175 143 268 188 150 72 211 85 396 85 l155 -1 180 -61 c203 -70 317 -93 455 -93 137 0 251 23 454 92 167 56 186 60 295 65 238 11 434 -52 614 -197 144 -115 248 -273 302 -455 51 -172 43 -466 -21 -754 -55 -251 -166 -522 -315 -773 l-51 -88 -34 -242 c-18 -134 -34 -253 -34 -264 0 -27 11 -31 102 -40 l74 -6 33 243 32 244 64 110 c137 236 224 447 285 690 59 236 74 358 74 600 0 197 -1 216 -27 310 -81 300 -275 543 -545 682 -189 98 -327 128 -547 120 -150 -6 -238 -25 -400 -87 -251 -95 -457 -92 -748 14 -70 25 -167 53 -214 61 -105 18 -303 18 -397 -1z"></path><path d="M815 3162 c-38 -8 -71 -16 -73 -18 -7 -5 60 -238 99 -341 46 -125 146 -332 217 -451 l50 -82 106 -783 c59 -430 112 -807 117 -837 24 -119 98 -217 206 -271 64 -32 73 -34 173 -34 93 0 112 3 162 27 32 15 79 47 106 72 95 89 90 70 238 956 73 437 138 812 144 833 14 48 72 114 118 133 44 18 120 18 164 0 43 -18 102 -83 117 -127 6 -19 49 -263 95 -543 47 -279 87 -510 90 -513 3 -3 44 1 91 8 85 12 86 13 81 38 -3 14 -42 244 -86 511 -44 267 -85 505 -92 530 -28 111 -109 209 -211 256 -56 26 -72 29 -172 29 -106 0 -112 -1 -172 -34 -76 -41 -146 -113 -178 -184 -19 -40 -53 -225 -155 -837 -71 -432 -135 -805 -142 -829 -32 -119 -170 -184 -283 -132 -44 19 -91 69 -107 110 -5 14 -60 398 -122 853 l-113 827 -79 138 c-44 75 -101 184 -127 242 -48 105 -124 321 -147 419 -14 59 -10 58 -115 34z"></path><path d="M4373 2027 c-595 -595 -623 -624 -623 -659 0 -28 9 -46 44 -85 l45 -50 -163 -162 -162 -162 -86 40 c-123 59 -199 74 -358 75 -110 0 -151 -4 -219 -22 -369 -99 -552 -389 -422 -667 71 -153 248 -277 456 -320 117 -24 293 -20 407 9 412 105 583 446 375 749 -10 15 8 37 145 174 l156 156 48 -41 c36 -33 55 -42 83 -42 34 0 61 25 528 493 l493 492 0 298 0 298 -25 24 c-17 18 -35 25 -62 25 -37 0 -56 -18 -660 -623z m145 -364 l-423 -423 -62 62 -63 63 482 482 483 483 3 -122 3 -122 -423 -423z m-1271 -839 c199 -50 350 -204 329 -335 -39 -246 -429 -384 -752 -266 -97 36 -191 113 -230 189 -77 152 31 319 257 398 121 42 268 47 396 14z"></path></g></svg>