<svg xmlns="http://www.w3.org/2000/svg" width="512.000000pt" height="506.000000pt" viewBox="0 0 512.000000 506.000000" preserveAspectRatio="xMidYMid meet"><g transform="translate(0.000000,506.000000) scale(0.100000,-0.100000)" fill="#000000" stroke="none"><path d="M580 5040 c-19 -19 -20 -33 -20 -245 l0 -225 -183 0 c-173 0 -186 1 -228 23 -48 26 -89 84 -89 128 0 35 -24 56 -45 39 -47 -39 19 -175 108 -223 39 -20 58 -22 240 -25 l197 -4 0 -894 0 -894 -245 0 -245 0 0 -535 0 -535 245 0 245 0 0 -579 0 -578 -70 -7 c-145 -15 -297 -73 -365 -141 -29 -29 -35 -43 -35 -77 0 -31 -7 -48 -30 -75 -86 -97 25 -237 140 -178 62 32 78 129 30 180 -14 15 -20 33 -18 50 6 51 136 106 285 121 l63 7 0 -79 c0 -62 -4 -85 -20 -109 -26 -39 -26 -104 0 -137 64 -82 193 -45 207 58 4 31 -1 47 -21 77 -22 33 -26 49 -26 114 l0 76 60 -7 c146 -17 272 -71 278 -121 2 -14 -4 -35 -12 -44 -45 -50 -41 -124 10 -172 34 -32 111 -34 144 -4 56 49 59 124 9 175 -22 22 -29 38 -29 68 0 31 -7 46 -37 76 -69 69 -213 126 -357 141 l-66 7 0 579 0 579 128 0 128 0 12 -112 c30 -283 136 -540 282 -687 170 -171 382 -191 620 -59 61 34 140 91 440 319 572 434 820 569 1189 643 111 22 112 23 81 36 -91 38 -482 -99 -746 -260 -136 -84 -253 -167 -529 -375 -452 -341 -501 -371 -649 -401 -262 -54 -487 149 -601 541 -29 100 -55 248 -55 313 l0 42 90 0 90 0 0 535 0 535 -91 0 -92 0 6 38 c27 166 31 433 10 654 l-6 66 28 4 c54 6 59 68 6 76 -11 2 -21 10 -21 18 0 11 19 14 95 14 104 0 137 10 154 47 7 16 11 135 11 359 l0 335 -25 24 c-22 22 -32 25 -105 25 l-80 0 0 69 0 69 31 7 c44 10 115 78 134 129 22 57 17 111 -10 111 -19 0 -27 -15 -40 -79 -7 -35 -62 -92 -97 -101 -20 -5 -32 1 -60 29 -20 20 -43 36 -51 36 -20 0 -65 -37 -72 -60 -6 -18 -16 -20 -105 -20 l-99 0 -3 226 c-3 224 -3 226 -27 245 -30 25 -66 24 -91 -1z m405 -460 c3 -5 -1 -10 -10 -10 -9 0 -13 5 -10 10 3 6 8 10 10 10 2 0 7 -4 10 -10z m-105 -135 l0 -65 -77 0 c-46 -1 -85 -6 -94 -13 -37 -28 -39 -49 -39 -387 l0 -332 29 -29 c29 -28 32 -29 130 -29 83 0 101 -3 101 -15 0 -8 -9 -15 -20 -15 -27 0 -44 -34 -30 -60 7 -14 21 -20 45 -20 18 0 36 -4 39 -9 3 -5 11 -84 18 -175 9 -133 9 -203 -1 -339 -7 -95 -15 -187 -18 -204 l-5 -33 -129 0 -129 0 0 423 c0 416 0 422 -21 435 -45 29 -49 60 -49 407 0 345 3 368 49 409 16 15 21 31 21 68 l0 48 90 0 90 0 0 -65z m133 43 c4 -12 3 -41 0 -65 -6 -42 -7 -44 -37 -41 -31 3 -31 4 -34 66 l-3 62 34 0 c27 0 36 -5 40 -22z m177 -258 c17 -17 20 -33 20 -103 0 -51 -5 -90 -13 -100 -11 -16 -34 -17 -227 -15 l-215 3 -3 105 c-2 90 0 107 15 117 12 10 70 13 210 13 180 0 194 -1 213 -20z m-142 -1805 l-1 -155 -423 0 -424 0 0 155 0 155 424 0 424 0 0 -155z m-458 -270 l0 -25 -195 0 -195 0 0 25 0 25 195 0 195 0 0 -25z m-2 -92 l3 -23 -195 0 -196 0 0 25 0 25 193 -2 c191 -3 192 -3 195 -25z m2 -98 l0 -25 -195 0 -195 0 0 25 0 25 195 0 195 0 0 -25z"></path><path d="M3065 3616 c-150 -37 -270 -150 -317 -300 -30 -92 -21 -222 20 -309 134 -287 502 -352 717 -126 111 116 151 272 110 425 -61 227 -300 367 -530 310z"></path><path d="M2097 3465 c-120 -25 -228 -50 -240 -56 -54 -29 -89 -66 -118 -124 -56 -115 -62 -70 160 -1180 111 -550 201 -1012 201 -1027 0 -26 14 -17 227 144 473 357 740 506 1055 587 l111 29 -31 16 c-26 14 -73 16 -301 16 -248 0 -270 1 -275 18 -3 9 -66 325 -141 702 -89 445 -144 703 -159 735 -32 70 -78 120 -139 149 -85 40 -112 39 -350 -9z"></path><path d="M3155 2671 c-148 -37 -255 -202 -255 -390 0 -100 12 -152 66 -278 l39 -93 185 0 185 0 -35 27 c-104 81 -238 231 -280 314 -23 45 -26 125 -6 172 17 41 74 91 121 107 47 16 117 7 161 -20 18 -12 53 -49 78 -84 53 -75 176 -191 237 -226 l44 -24 -16 24 c-9 14 -51 88 -94 165 -52 93 -97 158 -132 193 -84 84 -215 134 -298 113z"></path><path d="M3164 2482 c-86 -41 -110 -143 -55 -237 59 -101 206 -247 330 -329 239 -158 540 -229 836 -197 213 24 317 55 351 106 43 66 34 156 -22 204 -53 47 -88 52 -195 28 -140 -31 -412 -31 -524 0 -205 56 -373 169 -492 331 -30 39 -65 79 -79 88 -38 25 -103 28 -150 6z"></path><path d="M4634 1779 c-30 -34 -90 -56 -209 -78 -232 -41 -436 -36 -633 15 -78 21 -110 24 -162 19 -98 -10 -242 -43 -349 -80 -268 -93 -455 -206 -919 -553 l-262 -197 2 -230 c3 -229 3 -230 31 -287 34 -69 101 -131 171 -157 l51 -19 3 -61 3 -61 249 0 250 0 0 60 0 60 580 0 580 0 0 -60 0 -60 255 0 255 0 0 65 c0 52 3 65 15 65 33 0 114 51 158 100 79 88 77 67 77 724 l0 581 -26 55 c-23 50 -78 120 -94 120 -4 0 -15 -10 -26 -21z"></path><path d="M4801 1669 c19 -48 19 -78 17 -647 l-3 -597 -34 -63 c-19 -34 -51 -78 -72 -97 l-38 -34 44 -40 c141 -130 376 -42 401 151 5 42 -152 1120 -177 1213 -15 57 -56 113 -104 141 -23 13 -44 24 -47 24 -4 0 3 -23 13 -51z"></path></g></svg>