<svg xmlns="http://www.w3.org/2000/svg" width="512.000000pt" height="506.000000pt" viewBox="0 0 512.000000 506.000000" preserveAspectRatio="xMidYMid meet"><metadata>Created by potrace 1.16, written by Peter Selinger 2001-2019</metadata><g transform="translate(0.000000,506.000000) scale(0.100000,-0.100000)" fill="#000000" stroke="none"><path d="M565 5044 c-16 -8 -122 -107 -235 -219 -113 -113 -208 -205 -212 -205 -3 0 -16 16 -29 36 l-22 36 172 172 c94 95 171 175 171 179 0 4 -12 7 -26 7 -20 0 -59 -33 -171 -142 -125 -123 -149 -143 -176 -143 l-32 0 0 -57 c0 -47 6 -64 31 -100 l31 -44 -30 -36 c-18 -22 -27 -45 -25 -59 3 -23 5 -22 49 18 l46 43 51 -12 51 -12 -100 -103 c-74 -76 -99 -108 -99 -128 0 -37 16 -26 155 114 l120 121 64 0 65 0 -202 -204 c-162 -163 -202 -208 -202 -230 0 -22 3 -25 18 -17 9 5 116 109 237 230 197 198 223 221 252 221 30 0 33 -3 33 -32 0 -29 -29 -61 -270 -303 -218 -220 -270 -277 -270 -298 0 -15 3 -27 7 -27 4 0 125 118 270 262 l263 262 0 -64 0 -64 -270 -271 c-218 -220 -270 -277 -270 -298 0 -15 3 -27 7 -27 4 0 125 118 270 262 l263 262 0 -64 0 -64 -270 -271 c-218 -220 -270 -277 -270 -298 0 -15 3 -27 7 -27 4 0 125 118 270 262 l263 262 0 -64 0 -64 -270 -271 c-218 -220 -270 -277 -270 -298 0 -15 3 -27 7 -27 4 0 125 118 270 262 l263 262 0 -64 0 -64 -270 -271 c-218 -220 -270 -277 -270 -298 0 -15 3 -27 7 -27 4 0 125 118 270 262 l263 262 0 -64 0 -64 -270 -271 c-218 -220 -270 -277 -270 -298 0 -15 3 -27 7 -27 4 0 125 118 270 262 l263 262 0 -64 0 -64 -270 -271 c-221 -223 -270 -276 -270 -299 0 -28 7 -28 43 2 16 14 17 11 17 -47 0 -54 -4 -67 -31 -101 -19 -23 -29 -47 -27 -60 l3 -22 28 22 27 21 0 -61 c0 -53 -4 -66 -31 -100 -19 -23 -29 -47 -27 -60 l3 -22 27 22 28 21 0 -61 c0 -53 -4 -66 -31 -100 -19 -23 -29 -47 -27 -60 l3 -22 28 22 27 21 0 -61 c0 -53 -4 -66 -31 -100 -19 -23 -29 -47 -27 -60 l3 -22 28 22 27 21 0 -61 c0 -53 -4 -66 -31 -100 -19 -23 -29 -47 -27 -60 l3 -22 28 22 27 21 0 -25 c0 -23 4 -26 36 -26 l36 0 -66 -70 c-45 -48 -66 -78 -66 -96 0 -35 17 -23 120 80 l85 86 64 0 65 0 -167 -169 c-132 -133 -167 -174 -167 -195 0 -22 3 -25 18 -17 9 5 100 93 202 195 l185 186 64 0 65 0 -267 -268 c-216 -217 -267 -274 -267 -295 0 -15 3 -27 7 -27 4 0 125 118 270 262 l263 262 0 -64 0 -64 -270 -271 c-218 -220 -270 -277 -270 -298 0 -15 3 -27 7 -27 4 0 125 118 270 262 l263 262 0 -64 0 -64 -270 -271 c-218 -220 -270 -277 -270 -298 0 -15 3 -27 7 -27 4 0 125 118 270 262 l263 262 0 -64 0 -64 -270 -271 c-218 -220 -270 -277 -270 -298 0 -15 3 -27 7 -27 4 0 125 118 270 262 l263 262 0 -64 0 -64 -270 -271 c-218 -220 -270 -277 -270 -298 0 -15 2 -27 5 -27 2 0 19 13 37 29 l33 29 -3 -42 c-2 -22 -12 -50 -22 -61 -27 -31 -37 -56 -45 -109 -5 -33 -4 -47 3 -42 5 3 24 -8 42 -24 26 -24 41 -30 77 -30 56 0 97 21 112 58 6 15 77 93 156 172 l145 145 0 -65 0 -65 -106 -105 c-124 -123 -136 -140 -100 -140 18 0 48 21 96 66 62 59 70 64 70 43 1 -13 7 -35 14 -49 9 -16 11 -31 5 -41 -8 -15 0 -17 72 -18 79 -1 82 0 115 33 30 30 34 40 34 88 l0 53 78 78 79 78 41 -16 c23 -10 42 -20 42 -24 0 -3 -57 -62 -126 -131 -145 -145 -157 -160 -118 -160 20 0 56 30 160 132 127 124 167 147 109 62 -15 -22 -25 -51 -25 -72 0 -26 -9 -45 -37 -76 -36 -39 -37 -41 -15 -44 12 -2 34 5 50 16 27 20 28 20 51 1 17 -14 39 -19 79 -19 l56 0 510 509 c499 496 516 512 711 658 110 82 216 159 235 173 33 22 33 21 -10 -24 -24 -25 -153 -128 -287 -229 l-242 -182 -1 -60 0 -60 -376 -375 c-206 -206 -380 -383 -385 -392 -8 -15 -5 -18 18 -18 22 0 89 63 385 357 l358 357 0 -64 0 -65 -276 -275 c-151 -151 -280 -283 -285 -292 -8 -15 -5 -18 17 -18 22 0 76 48 285 257 142 141 260 255 262 252 3 -2 7 -27 11 -54 l6 -50 -186 -185 c-102 -102 -190 -193 -195 -202 -8 -15 -5 -18 17 -18 21 0 64 37 208 180 l181 179 29 -35 28 -36 -136 -137 c-75 -76 -136 -141 -136 -144 0 -4 12 -7 26 -7 20 0 57 30 158 129 l131 129 43 -22 42 -21 -91 -90 c-109 -108 -120 -125 -84 -125 19 0 50 24 115 86 l90 87 0 -42 c0 -35 3 -41 21 -41 19 0 18 -4 -15 -40 -20 -22 -36 -42 -36 -45 0 -3 11 -5 24 -5 14 0 44 18 74 45 48 43 53 45 112 45 l62 0 -36 -40 c-20 -22 -36 -42 -36 -45 0 -3 11 -5 24 -5 14 0 44 18 74 45 48 43 53 45 112 45 l62 0 -36 -40 c-20 -22 -36 -42 -36 -45 0 -3 12 -5 26 -5 19 0 52 26 128 100 l103 100 63 0 64 0 -92 -94 c-51 -51 -92 -96 -92 -100 0 -3 12 -6 26 -6 19 0 52 26 128 100 l103 100 63 0 64 0 -92 -94 c-51 -51 -92 -96 -92 -100 0 -3 12 -6 26 -6 19 0 52 26 128 100 l103 100 63 0 64 0 -92 -94 c-51 -51 -92 -96 -92 -100 0 -3 12 -6 26 -6 19 0 52 26 128 100 l103 100 63 0 64 0 -92 -94 c-51 -51 -92 -96 -92 -100 0 -3 12 -6 26 -6 19 0 52 26 128 100 l103 100 63 0 64 0 -92 -94 c-51 -51 -92 -96 -92 -100 0 -3 12 -6 26 -6 19 0 52 26 128 100 119 116 146 126 146 57 0 -37 -6 -48 -41 -82 -22 -22 -45 -48 -50 -57 -8 -15 -6 -18 15 -18 14 0 44 18 74 45 48 43 53 45 112 45 l62 0 -36 -40 c-20 -22 -36 -42 -36 -45 0 -3 11 -5 24 -5 14 0 44 18 74 45 48 43 53 45 112 45 l62 0 -36 -40 c-20 -22 -36 -42 -36 -45 0 -3 11 -5 24 -5 14 0 44 18 74 45 36 33 58 45 81 45 29 0 31 3 31 34 0 29 8 41 56 83 80 69 145 133 177 176 16 21 31 36 34 34 9 -10 -40 -91 -84 -139 -43 -45 -45 -49 -30 -66 15 -17 12 -23 -64 -97 -99 -98 -110 -115 -74 -115 18 0 49 23 109 81 l84 80 31 -15 c16 -9 38 -16 47 -16 12 0 -1 -19 -39 -59 -32 -33 -57 -62 -57 -65 0 -3 11 -6 25 -6 16 0 46 20 89 60 45 43 78 65 113 75 61 18 125 72 152 128 23 46 27 137 12 230 -4 26 -4 50 1 53 14 9 10 54 -6 48 -10 -4 -15 10 -20 51 -5 47 -3 61 14 85 11 15 20 38 20 50 0 21 -1 22 -25 6 -27 -18 -24 -23 -41 62 -3 16 6 35 31 64 38 45 49 96 17 79 -9 -5 -26 -19 -37 -31 l-20 -22 -6 24 c-18 60 -10 89 36 140 27 30 45 60 45 74 0 13 -2 24 -5 24 -3 0 -28 -20 -54 -45 l-48 -45 -7 56 -6 56 60 64 c40 43 60 73 60 89 0 14 -3 25 -6 25 -3 0 -32 -25 -64 -56 -56 -53 -59 -55 -64 -33 -17 83 -18 79 60 161 52 55 74 85 74 103 0 34 -18 24 -95 -55 l-60 -61 -11 53 -10 53 88 92 c64 67 88 99 88 118 0 36 -17 25 -115 -74 l-80 -81 -31 32 -30 33 128 131 c98 101 128 138 128 158 0 14 -3 26 -7 26 -3 0 -71 -64 -149 -141 -128 -127 -145 -141 -169 -135 -24 6 -25 5 -15 -15 22 -39 -5 -43 -29 -4 -11 20 -21 39 -21 43 0 3 88 94 195 203 155 155 195 202 195 223 0 14 -3 26 -7 26 -4 0 -100 -93 -214 -207 -182 -180 -210 -205 -224 -193 -14 11 -20 9 -48 -18 -18 -17 -52 -38 -76 -47 -73 -25 -62 -5 20 38 31 16 52 37 70 70 15 29 116 138 252 276 183 184 227 233 227 255 0 22 -3 25 -17 17 -10 -5 -112 -105 -228 -220 -115 -116 -213 -211 -217 -211 -5 0 -8 6 -8 14 0 8 -9 24 -19 37 l-20 24 255 256 c205 206 254 261 254 282 0 15 -3 27 -7 27 -4 0 -127 -119 -273 -265 l-265 -264 -58 6 -58 6 330 332 c270 270 331 336 331 358 0 15 -3 27 -7 27 -4 0 -176 -169 -383 -375 l-375 -374 -70 -7 -70 -6 453 454 c375 377 452 459 452 481 0 23 -3 26 -17 18 -10 -5 -232 -224 -493 -485 -504 -505 -480 -485 -560 -470 -32 7 -29 9 519 558 457 458 551 556 551 579 0 15 -3 27 -7 27 -4 0 -267 -259 -584 -576 l-577 -577 -52 13 -52 13 636 636 c529 530 636 641 636 664 0 15 -3 27 -7 27 -4 0 -302 -295 -663 -655 l-655 -654 -44 20 -45 20 707 707 c589 590 707 712 707 735 0 15 -3 27 -7 27 -4 0 -325 -318 -714 -706 l-706 -706 -21 37 c-12 20 -22 39 -22 43 0 4 331 338 735 742 613 614 735 740 735 763 0 15 -3 27 -7 27 -4 0 -342 -334 -751 -742 -410 -409 -746 -738 -748 -733 -2 6 -13 24 -23 40 l-19 30 774 775 c646 647 774 780 774 803 0 15 -3 27 -7 27 -4 0 -357 -350 -785 -777 -427 -427 -779 -775 -781 -773 -2 3 -14 20 -27 38 l-23 34 812 812 c677 678 811 816 811 839 0 15 -3 27 -7 27 -4 0 -377 -369 -828 -820 l-820 -819 -35 29 -35 29 863 863 c721 722 862 868 862 891 0 15 -3 27 -7 27 -4 0 -402 -394 -884 -876 l-876 -876 -44 13 c-24 7 -46 14 -48 16 -9 7 86 96 123 115 54 28 143 114 173 168 16 28 319 339 795 815 641 643 768 775 768 798 0 15 -3 27 -7 27 -4 0 -343 -335 -753 -745 l-746 -746 4 68 4 68 749 750 c629 631 749 755 749 778 0 23 -3 26 -17 18 -10 -5 -351 -343 -758 -750 l-739 -740 -18 47 -18 47 775 775 c647 647 775 780 775 803 0 15 -3 27 -7 27 -4 0 -359 -351 -789 -781 l-781 -780 -28 36 -28 37 762 762 c418 419 761 765 761 769 0 4 -12 7 -27 7 -23 0 -153 -125 -783 -754 l-755 -754 -38 26 -38 26 720 720 c397 397 721 725 721 729 0 4 -12 7 -27 7 -23 0 -148 -120 -748 -718 l-720 -718 -52 10 -53 11 691 690 c379 380 695 698 700 708 8 14 5 17 -18 17 -23 0 -141 -114 -738 -710 -597 -597 -715 -710 -738 -710 -15 0 -53 -9 -85 -20 -57 -20 -52 -16 665 703 398 397 723 726 723 730 0 4 -12 7 -27 7 -23 0 -171 -143 -903 -874 l-875 -874 -21 43 -22 42 815 814 c448 448 819 822 824 832 8 14 5 17 -18 17 -23 0 -156 -128 -839 -811 l-812 -812 -34 23 c-18 13 -35 25 -38 27 -2 2 346 354 773 781 427 428 777 781 777 785 0 4 -12 7 -27 7 -23 0 -156 -128 -803 -773 l-775 -773 -59 4 -59 4 762 762 c418 419 761 765 761 769 0 4 -12 7 -27 7 -23 0 -156 -129 -809 -781 l-781 -781 -64 -14 c-35 -7 -71 -13 -79 -14 -8 0 340 354 773 788 433 433 787 791 787 795 0 4 -12 7 -27 7 -23 0 -162 -134 -838 -810 -596 -596 -817 -810 -833 -810 -64 0 -161 -84 -192 -168 -11 -29 -20 -56 -20 -60 0 -4 -115 -122 -255 -262 -152 -152 -255 -248 -255 -237 0 14 -9 17 -47 17 l-48 0 1158 1158 c636 636 1157 1161 1157 1165 0 4 -12 7 -27 7 -23 0 -215 -187 -1193 -1165 -641 -641 -1170 -1165 -1176 -1165 -7 0 -8 19 -2 63 l8 62 1095 1095 c602 602 1095 1099 1095 1103 0 4 -12 7 -27 7 -23 0 -199 -172 -1090 -1062 l-1063 -1063 0 65 0 65 981 980 c539 539 985 988 990 998 8 14 5 17 -18 17 -23 0 -178 -150 -990 -962 l-963 -963 0 65 0 65 881 880 c484 484 885 888 890 898 8 14 5 17 -18 17 -23 0 -163 -136 -890 -862 -474 -474 -864 -860 -867 -858 -2 3 -5 28 -7 56 -3 51 -3 51 71 127 66 68 78 77 110 77 47 0 80 33 80 81 0 32 42 76 656 689 360 360 660 663 665 673 8 14 5 17 -18 17 -23 0 -131 -103 -665 -637 l-638 -638 0 65 0 65 556 555 c305 305 560 563 565 573 8 14 5 17 -18 17 -23 0 -116 -89 -565 -537 l-538 -538 0 65 0 65 456 455 c250 250 460 463 465 473 8 14 5 17 -18 17 -22 0 -101 -74 -465 -437 l-438 -437 0 64 0 65 356 355 c195 195 360 363 365 373 8 14 5 17 -18 17 -22 0 -88 -61 -372 -343 l-346 -343 -48 15 -47 16 311 310 c170 171 315 318 320 328 8 14 5 17 -18 17 -22 0 -85 -59 -358 -330 -182 -181 -334 -330 -338 -330 -4 0 -7 27 -7 60 l0 60 40 16 c42 17 120 96 120 122 0 8 83 99 185 202 102 103 185 190 185 193 0 4 -12 7 -26 7 -20 0 -59 -32 -171 -142 -133 -131 -148 -143 -181 -143 -35 0 -36 -1 -44 -45 -6 -36 -17 -55 -57 -92 -27 -27 -54 -48 -58 -48 -5 0 -20 14 -32 31 l-23 31 198 201 c169 170 196 202 177 205 -13 2 -32 -3 -44 -12 -12 -8 -122 -114 -244 -235 l-222 -221 -64 0 -63 0 227 228 c125 125 227 231 227 235 0 4 -12 7 -27 7 -21 0 -72 -45 -255 -227 l-228 -227 0 65 0 64 146 145 c80 80 150 153 155 163 8 14 5 17 -17 17 -20 0 -56 -29 -155 -127 l-129 -126 0 63 0 63 58 61 c52 56 55 61 34 64 -13 2 -37 -7 -55 -21 l-33 -25 -16 29 c-14 24 -24 29 -55 29 -21 0 -51 -7 -68 -16z m-147 -331 l-133 -133 -51 0 c-28 0 -54 3 -58 7 -4 4 78 92 181 195 l188 188 3 -62 3 -62 -133 -133z m101 -99 c-31 -32 -37 -34 -98 -34 l-66 0 95 95 95 96 3 -62 c3 -58 1 -64 -29 -95z m331 -469 l-95 -96 -3 62 c-3 58 -1 64 29 95 31 32 37 34 98 34 l66 0 -95 -95z m180 -20 l-115 -115 -65 0 -65 0 115 115 115 115 65 0 65 0 -115 -115z m128 -72 c-41 -42 -44 -43 -107 -43 l-66 0 105 105 105 106 3 -62 c3 -61 2 -63 -40 -106z m-358 -558 l-95 -96 -3 62 c-3 58 -1 64 29 95 31 32 37 34 98 34 l66 0 -95 -95z m128 -23 c17 -2 32 -7 32 -11 0 -3 -58 -65 -130 -136 l-130 -130 0 65 0 65 82 82 c57 58 88 81 98 77 8 -4 30 -9 48 -12z m-87 -336 l-141 -141 0 65 0 65 133 133 132 133 9 -57 9 -56 -142 -142z m0 -200 l-141 -141 0 65 0 65 138 138 137 137 3 -62 3 -62 -140 -140z m-453 -53 l-163 -163 -65 0 -65 0 225 225 225 225 3 -62 3 -62 -163 -163z m1065 -135 l-258 -258 -3 62 -3 62 253 253 253 253 8 -57 8 -56 -258 -259z m-476 185 l-7 -67 -72 -73 -72 -73 -66 0 -65 0 140 140 c77 77 142 140 144 140 2 0 1 -30 -2 -67z m-489 -150 l-62 -63 -66 0 -65 0 125 125 125 125 3 -61 3 -62 -63 -64z m983 -216 l-276 -277 -3 62 -3 62 268 268 268 268 11 -52 11 -53 -276 -278z m1414 274 l33 -29 -88 -87 -88 -87 -11 53 -12 53 63 63 c34 35 64 63 66 63 3 0 19 -13 37 -29z m165 -88 c2 -2 -59 -67 -135 -144 l-140 -139 -11 52 -11 53 105 106 104 107 42 -16 c22 -9 43 -17 46 -19z m-1276 -43 c6 -35 5 -36 -289 -330 l-295 -295 0 65 0 65 282 282 c221 221 284 279 289 265 3 -9 9 -33 13 -52z m1441 0 c-16 -16 -36 -30 -44 -30 -33 0 -121 -50 -162 -92 -37 -38 -99 -146 -99 -173 0 -16 -97 -108 -103 -98 -2 4 -8 28 -12 52 l-7 44 163 163 164 164 64 0 65 0 -29 -30z m-1410 -160 l6 -45 -310 -310 -311 -310 0 65 0 65 297 297 c164 164 301 294 304 290 4 -4 10 -27 14 -52z m-1455 -105 l-135 -135 -3 62 -3 61 73 74 72 73 66 0 65 0 -135 -135z m180 -20 l-155 -155 -65 0 -65 0 155 155 155 155 65 0 65 0 -155 -155z m200 0 l-155 -155 -65 0 -65 0 155 155 155 155 65 0 65 0 -155 -155z m310 133 c0 -16 -42 -64 -132 -155 l-133 -133 -65 0 -65 0 155 155 c151 152 156 155 197 155 38 0 43 -3 43 -22z m-31 -254 c-31 -32 -37 -34 -98 -34 l-66 0 95 95 95 96 3 -62 c3 -58 1 -64 -29 -95z m512 -287 l-326 -327 -3 62 -3 62 318 318 318 318 11 -52 11 -53 -326 -328z m349 211 l11 -52 -413 -413 c-227 -227 -416 -413 -419 -413 -4 0 -11 21 -16 48 l-10 47 416 418 c229 229 417 417 418 417 1 0 6 -23 13 -52z m35 -174 l7 -47 -409 -409 -408 -408 -16 47 -17 48 411 412 c226 226 414 410 418 408 4 -3 10 -26 14 -51z m-349 -601 c-215 -216 -394 -393 -397 -393 -3 0 -14 18 -24 41 l-19 40 405 405 404 404 11 -52 11 -53 -391 -392z m414 275 l11 -52 -373 -373 -372 -372 -23 34 c-13 19 -23 38 -23 42 0 6 760 773 767 773 1 0 6 -23 13 -52z m-1145 -208 l-120 -120 -3 61 -3 62 58 59 57 58 66 0 65 0 -120 -120z m1180 34 l7 -47 -338 -338 -338 -339 -33 32 -33 32 357 358 c196 196 360 355 364 353 4 -3 10 -26 14 -51z m-1170 -224 l-135 -135 0 65 0 65 128 128 127 127 7 -57 8 -58 -135 -135z m926 -272 c-157 -159 -292 -288 -299 -288 -8 0 -30 7 -49 17 l-35 16 324 324 323 323 11 -52 11 -53 -286 -287z m-766 282 l6 -45 -150 -150 -151 -150 0 65 0 65 137 137 c76 76 141 134 144 130 4 -4 10 -27 14 -52z m1079 -130 c6 -35 5 -37 -207 -248 l-213 -212 -64 0 -65 0 265 265 c281 281 269 273 284 195z m-1034 -20 l14 -41 -177 -177 -177 -177 0 65 0 65 157 157 c86 86 160 155 163 153 4 -2 13 -23 20 -45z m1170 -85 c-71 -72 -283 -229 -381 -283 l-64 -35 160 162 c155 156 160 160 163 131 2 -16 9 -30 15 -29 7 0 46 27 87 59 41 32 77 59 80 59 2 1 -25 -28 -60 -64z m-1298 -298 l-207 -207 -3 62 -3 62 188 188 188 188 22 -43 22 -42 -207 -208z m261 125 l25 -39 -201 -201 c-200 -200 -203 -202 -245 -202 -81 0 -71 16 169 256 123 123 224 224 225 224 1 0 13 -17 27 -38z m95 -110 l32 -27 -172 -172 -173 -172 -45 12 c-25 6 -47 13 -50 14 -5 4 362 373 370 373 3 0 20 -13 38 -28z m303 -356 l-334 -334 -22 42 -23 41 246 247 c218 219 251 249 296 263 28 9 75 30 106 45 30 16 57 29 60 30 3 0 -145 -150 -329 -334z m-1106 94 c-73 -73 -94 -88 -136 -99 -28 -7 -76 -26 -107 -41 -53 -28 -48 -21 134 161 l189 189 3 -62 3 -62 -86 -86z m923 182 l41 -18 -167 -167 c-92 -92 -170 -167 -174 -167 -4 0 -23 10 -43 22 l-37 21 164 164 c89 89 166 163 169 163 4 0 25 -8 47 -18z m170 -42 l47 0 -215 -215 c-195 -195 -215 -213 -223 -193 -4 13 -15 31 -24 41 -16 17 -7 28 163 198 106 106 184 177 192 174 8 -3 35 -5 60 -5z m-1193 -440 c-55 -55 -102 -96 -105 -92 -3 4 -16 19 -30 35 l-24 27 40 41 c36 37 90 61 189 82 11 3 22 5 25 6 2 0 -40 -44 -95 -99z"></path></g></svg>