<svg xmlns="http://www.w3.org/2000/svg" width="840.000000pt" height="659.000000pt" viewBox="0 0 840.000000 659.000000" preserveAspectRatio="xMidYMid meet"><metadata>Created by potrace 1.16, written by Peter Selinger 2001-2019</metadata><g transform="translate(0.000000,659.000000) scale(0.100000,-0.100000)" fill="#000000" stroke="none"><path d="M3495 6176 c-222 -55 -387 -283 -474 -652 -22 -97 -51 -318 -51 -396 l0 -48 1226 0 1227 0 -7 113 c-4 61 -16 162 -26 222 -76 442 -262 716 -519 765 -82 15 -1312 12 -1376 -4z"></path><path d="M2914 4933 c-10 -83 3 -274 25 -373 90 -396 332 -695 726 -893 39 -19 90 -45 114 -58 24 -12 76 -30 115 -39 l71 -17 -250 -6 c-202 -4 -269 -9 -347 -26 -398 -87 -744 -320 -969 -655 -107 -159 -183 -341 -230 -551 -22 -97 -23 -119 -26 -826 l-4 -726 193 -56 c513 -149 977 -239 1473 -283 233 -21 786 -24 980 -5 573 55 1039 165 1382 327 l83 39 0 648 c0 384 -4 687 -10 745 -76 699 -607 1250 -1310 1357 -57 9 -175 15 -295 16 -196 1 -199 1 -140 15 59 14 82 25 265 120 201 104 340 219 463 382 168 224 257 487 257 763 0 53 -3 111 -6 128 l-6 31 -1274 0 -1273 0 -7 -57z m2406 -156 c0 -29 -6 -60 -12 -69 -7 -9 -115 -62 -241 -118 l-227 -103 -28 26 c-59 56 -68 57 -635 57 -567 0 -578 -1 -631 -56 l-31 -32 -214 83 c-117 46 -215 85 -216 87 -2 2 -7 43 -11 91 l-7 87 1127 0 1126 0 0 -53z m-40 -239 c-39 -134 -74 -210 -149 -323 -44 -67 -189 -228 -221 -245 -13 -7 -15 14 -16 178 0 103 -5 206 -11 229 l-10 41 196 90 c108 50 204 91 213 91 15 1 15 -4 -2 -61z m-1973 -57 l181 -72 4 -222 c2 -122 2 -224 1 -226 -1 -2 -34 27 -73 65 -131 126 -222 264 -280 423 -30 81 -37 116 -22 108 4 -3 89 -37 189 -76z m1864 -1697 c135 -134 170 -176 175 -203 9 -45 -14 -87 -80 -148 -28 -25 -171 -165 -317 -310 l-265 -263 -49 0 -49 0 -173 173 -173 173 0 46 c0 60 -14 43 366 414 l305 297 46 -6 c44 -5 53 -12 214 -173z m-965 -685 c33 -12 236 -209 266 -257 26 -42 22 -127 -8 -163 -10 -13 -100 -103 -199 -199 -134 -130 -194 -182 -236 -202 -48 -23 -819 -252 -874 -259 -58 -8 -94 25 -81 74 7 28 972 992 1006 1006 33 13 92 13 126 0z"></path><path d="M4762 2437 c-237 -237 -256 -263 -213 -287 11 -5 23 -10 27 -10 11 0 463 450 475 473 13 24 -6 57 -34 57 -16 0 -91 -69 -255 -233z"></path></g></svg>