<svg xmlns="http://www.w3.org/2000/svg" width="612.000000pt" height="612.000000pt" viewBox="0 0 612.000000 612.000000" preserveAspectRatio="xMidYMid meet"><metadata>Created by potrace 1.16, written by Peter Selinger 2001-2019</metadata><g transform="translate(0.000000,612.000000) scale(0.100000,-0.100000)" fill="#000000" stroke="none"><path d="M2805 5289 c-125 -15 -248 -40 -365 -74 -827 -238 -1446 -931 -1591 -1779 -26 -154 -36 -460 -20 -607 84 -734 489 -1354 1124 -1718 198 -114 416 -197 645 -245 181 -38 212 -34 277 34 l30 31 3 762 c3 791 -1 916 -37 1035 -42 138 -109 209 -293 314 -234 133 -288 193 -288 324 0 47 -4 65 -19 78 -28 25 -79 17 -104 -16 -20 -26 -20 -28 -2 -85 10 -32 19 -76 19 -98 1 -34 -2 -40 -19 -40 -14 0 -27 15 -45 51 -33 68 -48 84 -77 84 -35 0 -61 -16 -76 -48 -23 -45 -8 -72 65 -116 65 -38 84 -58 72 -77 -8 -14 -39 -11 -105 12 -61 21 -61 21 -88 2 -22 -17 -26 -28 -26 -68 0 -40 4 -51 25 -67 25 -18 27 -18 107 1 84 20 123 19 123 -4 0 -20 -23 -35 -102 -65 -115 -45 -131 -82 -66 -156 52 -58 79 -48 154 58 44 63 60 79 77 76 38 -5 33 -50 -12 -133 -23 -41 -41 -85 -41 -99 0 -29 42 -66 76 -66 42 0 64 33 64 98 0 63 15 94 74 154 45 46 88 55 179 40 122 -21 178 -64 216 -167 42 -111 43 -144 48 -940 l4 -771 -21 -27 c-26 -33 -41 -33 -172 -7 -631 129 -1190 565 -1477 1153 -145 298 -213 590 -214 922 -1 196 11 309 49 483 123 556 478 1053 969 1354 340 208 713 312 1120 311 338 -1 635 -69 932 -214 638 -311 1078 -917 1179 -1625 22 -156 22 -450 0 -592 -48 -304 -146 -577 -291 -812 -309 -498 -782 -840 -1345 -971 -158 -36 -182 -37 -209 -3 -21 26 -21 34 -21 718 0 380 5 743 10 806 24 280 94 369 300 386 56 4 71 2 104 -18 63 -38 100 -98 106 -175 4 -57 9 -69 32 -86 44 -33 108 -3 108 49 0 14 -18 58 -40 98 -39 71 -50 119 -30 131 22 14 50 -9 99 -79 68 -99 98 -110 149 -52 63 72 48 113 -55 151 -166 60 -143 114 30 69 57 -15 62 -14 86 4 22 16 26 27 26 67 0 40 -4 51 -26 67 -26 20 -27 20 -96 -3 -83 -26 -120 -20 -95 17 4 6 36 29 72 51 59 36 65 43 68 76 6 74 -83 117 -127 61 -11 -14 -23 -35 -27 -47 -4 -12 -15 -35 -26 -50 -16 -22 -23 -25 -34 -16 -19 16 -18 41 7 129 20 73 20 74 1 99 -24 32 -76 40 -103 15 -15 -13 -19 -31 -19 -78 0 -78 -32 -149 -89 -198 -23 -19 -96 -66 -163 -104 -227 -128 -287 -191 -331 -344 -34 -118 -38 -232 -35 -1018 l3 -773 41 -39 c59 -55 91 -58 251 -27 723 144 1347 659 1628 1346 106 258 155 497 162 791 10 394 -60 717 -232 1062 -335 673 -972 1123 -1728 1223 -127 16 -412 19 -532 4z"></path><path d="M2002 4138 c-375 -31 -665 -334 -749 -781 -24 -131 -24 -448 0 -572 97 -493 417 -805 824 -805 153 0 262 40 351 127 70 70 105 146 110 240 4 69 2 77 -42 171 -52 112 -59 167 -26 217 36 54 19 105 -34 105 -22 0 -64 -49 -82 -97 -26 -68 -15 -142 37 -248 55 -113 58 -163 13 -245 -56 -104 -168 -162 -319 -164 -105 -1 -173 14 -270 59 -246 113 -414 370 -464 712 -14 90 -14 335 -1 428 53 368 238 623 525 721 70 24 95 28 200 27 137 0 203 -18 292 -79 88 -60 143 -165 143 -273 0 -60 -17 -101 -96 -236 -39 -67 -41 -166 -5 -235 13 -25 28 -48 35 -52 23 -15 56 -8 71 16 15 23 15 28 -4 70 -32 69 -28 111 20 191 73 120 83 151 83 245 0 298 -253 488 -612 458z"></path><path d="M3864 4121 c-184 -53 -304 -168 -346 -333 -33 -133 -19 -205 71 -353 48 -80 52 -122 20 -191 -19 -42 -19 -47 -4 -70 36 -56 104 -8 126 90 16 73 5 132 -38 202 -86 142 -99 204 -67 315 66 224 377 323 661 209 234 -94 396 -303 466 -603 29 -127 32 -477 4 -607 -65 -306 -225 -531 -452 -635 -241 -111 -497 -65 -590 105 -43 81 -40 131 15 245 51 106 62 180 36 248 -18 48 -60 97 -82 97 -53 0 -70 -51 -34 -105 33 -50 26 -105 -26 -217 -44 -94 -46 -102 -42 -171 7 -135 83 -248 209 -311 94 -47 161 -59 294 -54 92 4 124 11 197 37 307 114 508 377 585 766 25 125 24 443 0 570 -68 349 -228 580 -496 714 -100 51 -196 71 -330 70 -78 0 -136 -6 -177 -18z"></path></g></svg>