<svg xmlns="http://www.w3.org/2000/svg" width="512.000000pt" height="512.000000pt" viewBox="0 0 512.000000 512.000000" preserveAspectRatio="xMidYMid meet"><metadata>Created by potrace 1.16, written by Peter Selinger 2001-2019</metadata><g transform="translate(0.000000,512.000000) scale(0.100000,-0.100000)" fill="#000000" stroke="none"><path d="M2615 4959 c-564 -56 -1051 -452 -1210 -984 -39 -131 -38 -130 -86 -144 -191 -57 -453 -236 -604 -412 -116 -135 -232 -347 -279 -511 -31 -106 -56 -246 -56 -309 0 -42 -19 -80 -190 -380 -262 -461 -267 -422 73 -659 l107 -74 0 -281 c0 -154 5 -298 10 -319 5 -23 23 -54 44 -75 l36 -36 265 -3 265 -3 0 -253 c0 -246 1 -254 23 -286 12 -18 35 -43 50 -54 28 -21 33 -21 802 -21 769 0 774 0 802 21 15 11 38 36 51 54 l22 33 0 596 0 597 46 44 c48 47 152 177 196 246 67 104 139 273 172 401 52 201 38 575 -30 795 -4 14 28 34 165 103 94 47 173 85 175 85 3 0 21 -31 42 -70 44 -85 79 -110 153 -110 47 0 102 26 733 343 761 381 728 360 728 463 0 48 -12 78 -130 313 -147 294 -161 311 -252 311 -43 0 -119 -36 -726 -339 -372 -186 -687 -349 -700 -361 -51 -48 -56 -123 -13 -208 l29 -58 -168 -84 c-93 -46 -171 -82 -173 -80 -2 3 -19 28 -37 55 -18 28 -55 76 -82 107 l-49 57 23 14 c13 8 57 34 98 58 337 198 578 577 631 990 20 156 -4 194 -185 282 -114 57 -221 95 -338 121 -60 14 -297 38 -337 35 -9 -1 -52 -5 -96 -10z m326 -324 c86 -15 187 -46 270 -84 l46 -21 -14 -62 c-42 -181 -133 -353 -256 -484 -103 -110 -178 -164 -312 -230 -293 -142 -604 -143 -907 -2 -48 22 -88 44 -88 48 0 26 48 158 85 231 61 124 117 203 214 299 160 159 361 266 576 305 97 18 286 18 386 0z m1769 -715 c24 -49 42 -91 39 -94 -8 -8 -1009 -506 -1017 -506 -9 0 -98 178 -91 184 9 9 1005 505 1014 505 6 1 31 -39 55 -89z m-3381 -779 c43 -221 160 -462 308 -634 124 -143 255 -242 438 -332 187 -92 371 -135 583 -135 67 0 122 -3 122 -6 0 -3 -14 -32 -30 -63 -45 -84 -125 -186 -212 -270 -43 -41 -84 -89 -93 -107 -13 -28 -15 -109 -15 -583 l0 -551 -565 0 -564 0 -3 259 c-3 244 -4 261 -24 287 -51 69 -50 69 -329 72 l-254 3 -3 262 c-3 243 -5 265 -23 297 -17 28 -214 183 -294 229 -11 6 23 72 147 290 143 251 161 289 166 339 18 184 28 249 52 324 84 266 262 488 502 629 l67 39 6 -142 c3 -79 11 -172 18 -207z m394 289 c195 -77 409 -108 614 -89 65 6 120 12 123 14 15 9 177 -148 227 -221 l22 -30 -181 -90 c-229 -113 -258 -143 -245 -251 10 -87 102 -146 191 -122 22 6 111 47 199 90 88 44 161 79 163 77 2 -2 11 -47 20 -98 21 -124 24 -328 4 -340 -24 -15 -159 -23 -265 -17 -535 33 -973 495 -975 1031 0 67 3 87 13 83 6 -3 47 -20 90 -37z"></path></g></svg>