<svg xmlns="http://www.w3.org/2000/svg" width="512.000000pt" height="512.000000pt" viewBox="0 0 512.000000 512.000000" preserveAspectRatio="xMidYMid meet"><metadata>Created by potrace 1.16, written by Peter Selinger 2001-2019</metadata><g transform="translate(0.000000,512.000000) scale(0.100000,-0.100000)" fill="#000000" stroke="none"><path d="M3365 5106 c-194 -45 -383 -154 -497 -288 -160 -187 -235 -402 -225 -643 6 -151 32 -250 96 -378 l49 -98 -44 -169 c-24 -93 -44 -181 -44 -195 0 -35 24 -79 54 -99 50 -32 101 -21 273 58 l160 73 84 -28 c246 -81 521 -51 749 82 206 120 363 331 422 564 31 125 31 333 -1 450 -44 165 -135 318 -257 436 -112 107 -210 164 -364 214 -75 25 -103 28 -240 31 -107 3 -173 -1 -215 -10z m368 -166 c464 -113 705 -629 497 -1065 -69 -146 -190 -264 -345 -340 -195 -96 -377 -106 -585 -35 -48 17 -100 30 -115 30 -15 0 -89 -27 -163 -60 -74 -34 -136 -59 -138 -57 -2 2 13 64 32 138 42 155 41 192 -4 262 -103 162 -138 401 -87 592 80 296 349 525 651 553 100 10 159 5 257 -18z"></path><path d="M3311 4805 c-55 -25 -259 -231 -287 -290 -43 -91 -27 -183 46 -255 65 -66 142 -85 234 -58 57 17 288 242 312 304 24 64 16 160 -19 213 -44 66 -97 95 -181 99 -48 1 -82 -3 -105 -13z m139 -165 c41 -41 28 -68 -89 -183 -117 -115 -135 -124 -176 -82 -43 42 -34 60 83 177 116 116 142 128 182 88z"></path><path d="M3752 4517 c-24 -25 -28 -66 -11 -99 13 -24 67 -48 109 -48 30 0 30 -1 30 -52 0 -97 54 -160 148 -174 26 -4 57 -13 69 -21 29 -19 78 -9 98 20 44 63 -13 142 -117 161 -36 7 -37 7 -37 54 1 95 -40 142 -144 166 -93 22 -120 20 -145 -7z"></path><path d="M3347 4110 c-14 -11 -31 -35 -37 -54 l-11 -33 -44 15 c-109 35 -214 -43 -215 -160 0 -97 132 -108 156 -14 6 23 7 24 40 10 63 -26 136 -11 181 37 31 34 65 132 57 163 -13 54 -80 73 -127 36z"></path><path d="M3685 4091 c-119 -54 -169 -200 -109 -319 75 -151 275 -172 387 -41 101 117 55 305 -90 366 -46 19 -140 16 -188 -6z m150 -166 c30 -29 31 -54 5 -88 -26 -33 -53 -41 -82 -26 -51 27 -61 70 -27 113 27 34 71 35 104 1z"></path><path d="M1585 4456 c-48 -21 -96 -67 -116 -111 -16 -34 -19 -67 -19 -226 l0 -186 -65 -5 c-73 -6 -123 -36 -150 -88 -22 -42 -21 -259 1 -306 20 -42 62 -73 109 -81 l35 -6 0 -353 c0 -243 4 -361 11 -378 23 -49 114 -53 139 -6 6 10 10 93 10 184 l0 166 315 0 316 0 -3 -477 -3 -478 -24 -53 c-31 -68 -114 -145 -181 -167 -158 -53 -323 20 -394 174 -18 40 -21 69 -24 211 -3 151 -5 167 -25 188 -30 32 -89 31 -116 -4 -19 -24 -21 -40 -21 -169 0 -78 5 -166 10 -196 23 -122 105 -242 211 -310 143 -91 352 -94 503 -5 56 33 139 122 170 184 56 111 56 110 56 828 l0 661 40 7 c59 9 105 60 120 133 15 71 7 210 -14 252 -27 52 -80 84 -146 89 l-58 4 -4 187 c-4 164 -7 191 -25 226 -27 51 -68 90 -115 109 -50 21 -496 23 -543 2z m501 -167 c17 -19 19 -41 22 -190 l3 -169 -250 0 -251 0 0 174 c0 169 1 175 22 190 19 13 58 16 229 16 197 0 207 -1 225 -21z m249 -599 l0 -75 -477 -3 -478 -2 0 80 0 80 478 -2 477 -3 0 -75z m-165 -355 l0 -115 -315 0 -315 0 0 115 0 115 315 0 315 0 0 -115z"></path><path d="M2985 3143 c-44 -23 -84 -63 -108 -108 -19 -36 -22 -60 -25 -227 l-4 -188 -43 0 c-75 0 -130 -32 -162 -94 -35 -68 -25 -273 16 -323 25 -30 82 -63 109 -63 l22 0 0 -295 0 -295 -875 0 -875 0 0 258 c0 276 -2 288 -53 326 -26 19 -44 21 -187 24 -176 4 -212 -5 -247 -56 -17 -25 -18 -75 -23 -786 l-5 -759 -48 -12 c-101 -26 -176 -107 -199 -217 -28 -132 53 -273 181 -317 25 -8 452 -11 1617 -11 1571 0 1584 0 1604 20 24 24 26 77 4 108 l-15 22 -1552 0 c-984 0 -1565 4 -1586 10 -46 13 -89 56 -97 96 -7 40 18 96 54 121 26 17 116 18 2072 18 1956 0 2046 -1 2072 -18 36 -25 61 -81 54 -121 -8 -40 -51 -83 -97 -96 -19 -6 -172 -10 -345 -10 -301 0 -312 -1 -329 -20 -25 -27 -24 -83 0 -110 18 -20 25 -21 379 -18 402 3 396 2 472 76 85 82 105 217 49 327 -35 68 -94 118 -158 136 -23 6 -48 13 -54 15 -10 3 -13 97 -13 429 0 354 -2 431 -15 454 -24 46 -74 55 -119 20 l-26 -20 0 -440 0 -439 -95 0 -95 0 0 720 0 720 95 0 95 0 0 -144 c0 -144 0 -145 26 -165 33 -26 75 -27 105 -2 23 19 24 24 27 193 2 153 1 177 -16 207 -33 62 -66 71 -243 71 -146 0 -158 -1 -190 -23 -57 -38 -59 -47 -59 -329 l0 -258 -170 0 -170 0 0 295 0 295 24 0 c31 0 85 38 113 79 21 31 23 45 23 161 0 115 -2 130 -22 160 -38 56 -71 74 -143 78 l-65 4 0 187 c0 205 -8 238 -66 293 -58 54 -82 58 -346 58 -202 -1 -248 -3 -273 -17z m504 -157 c20 -18 21 -29 21 -193 l0 -173 -251 0 -250 0 3 169 c3 148 5 172 22 189 25 29 37 30 247 29 169 -2 189 -4 208 -21z m251 -606 l0 -80 -477 2 -478 3 -3 64 c-2 35 -1 70 2 77 4 12 90 14 481 14 l475 0 0 -80z m-160 -355 l0 -115 -315 0 -315 0 0 115 0 115 315 0 315 0 0 -115z m-2700 -745 l0 -720 -95 0 -95 0 0 720 0 720 95 0 95 0 0 -720z m2700 370 l0 -100 -315 0 -315 0 0 100 0 100 315 0 315 0 0 -100z m-788 -572 c3 -296 5 -316 26 -368 12 -31 35 -77 52 -103 l30 -47 -930 0 -930 0 0 415 0 415 874 0 875 0 3 -312z m786 15 l-3 -298 -28 -57 c-30 -62 -83 -115 -149 -150 -62 -33 -204 -33 -266 0 -66 35 -119 88 -149 150 l-28 57 -3 298 -3 297 316 0 316 0 -3 -297z m502 -118 l0 -415 -226 0 -226 0 16 22 c32 44 76 144 86 197 5 30 10 179 10 332 l0 279 170 0 170 0 0 -415z"></path></g></svg>