<svg xmlns="http://www.w3.org/2000/svg" width="512.000000pt" height="512.000000pt" viewBox="0 0 512.000000 512.000000" preserveAspectRatio="xMidYMid meet"><metadata>Created by potrace 1.16, written by Peter Selinger 2001-2019</metadata><g transform="translate(0.000000,512.000000) scale(0.100000,-0.100000)" fill="#000000" stroke="none"><path d="M2240 5105 c-389 -48 -766 -188 -1091 -404 -504 -335 -871 -825 -1043 -1395 -74 -243 -106 -468 -106 -746 0 -278 32 -503 106 -746 97 -320 270 -642 482 -894 151 -181 380 -387 550 -495 57 -36 62 -42 58 -68 -12 -60 44 -112 107 -100 37 7 51 28 77 113 75 255 253 498 481 655 l37 26 103 -36 c197 -69 350 -95 562 -95 212 0 379 29 575 102 l82 31 38 -27 c229 -158 407 -400 482 -656 26 -85 40 -106 78 -113 64 -12 118 39 106 100 -4 25 1 32 58 68 170 108 399 314 550 495 212 252 385 574 482 894 74 243 106 468 106 746 0 209 -10 324 -46 505 -181 920 -867 1676 -1768 1949 -132 41 -333 81 -468 96 -131 14 -469 11 -598 -5z m240 -879 c0 -13 -3 -44 -6 -69 -6 -41 -10 -47 -46 -63 -22 -10 -57 -35 -80 -57 -94 -91 -121 -235 -65 -350 31 -62 100 -130 153 -149 19 -7 34 -16 34 -20 0 -4 -51 -8 -112 -8 -141 0 -167 -13 -204 -98 -14 -31 -35 -67 -46 -79 -27 -29 -80 -46 -119 -38 -31 7 -99 59 -99 76 0 27 -47 104 -74 120 -28 17 -53 19 -233 19 -112 0 -203 3 -203 7 0 12 81 125 146 203 147 176 320 318 502 409 117 59 320 118 415 120 33 1 37 -2 37 -23z m303 3 c296 -60 582 -238 801 -499 69 -83 156 -202 156 -214 0 -4 -22 -6 -49 -6 -49 0 -51 1 -85 53 -51 75 -169 207 -256 283 -186 164 -392 267 -605 303 l-100 18 -3 41 c-4 51 -4 51 141 21z m-1260 -886 l197 -4 15 -34 c22 -54 100 -130 158 -156 70 -30 173 -31 238 -2 63 28 126 87 155 145 l24 48 84 0 84 0 12 -30 c14 -34 46 -59 100 -80 48 -18 87 -56 101 -98 23 -69 -25 -150 -101 -173 -76 -23 -110 -71 -110 -154 0 -53 4 -65 25 -85 15 -14 37 -23 55 -23 34 0 80 37 80 65 0 17 16 18 306 18 346 0 403 7 501 66 158 95 253 256 253 431 l0 63 70 0 71 0 33 -73 c18 -40 50 -123 70 -185 27 -80 45 -117 63 -132 33 -26 43 -25 128 5 205 72 424 -12 519 -200 127 -251 -33 -555 -314 -595 -55 -8 -164 1 -177 14 -3 2 2 46 11 98 9 51 20 145 25 208 9 106 11 116 36 137 50 44 117 16 130 -54 9 -52 40 -83 82 -83 47 0 69 14 82 52 28 79 -37 204 -133 255 -44 24 -169 24 -217 0 -101 -50 -137 -120 -150 -292 -17 -225 -67 -423 -150 -587 -203 -405 -574 -691 -1022 -789 -146 -32 -381 -37 -533 -11 -473 81 -857 361 -1072 780 -92 179 -143 370 -161 603 -10 139 -25 186 -74 238 -94 99 -242 107 -343 18 -51 -45 -69 -75 -84 -140 -17 -78 14 -126 81 -127 43 0 66 21 80 76 23 82 90 111 139 59 20 -22 24 -39 32 -139 4 -63 16 -158 27 -212 12 -64 16 -103 10 -109 -6 -6 -60 -10 -122 -10 -106 0 -116 2 -177 32 -293 143 -323 540 -54 718 73 48 142 68 239 68 59 0 94 -6 133 -22 113 -45 144 -26 188 117 14 48 47 136 72 195 42 96 49 107 67 101 11 -4 109 -9 218 -11z"></path><path d="M1792 2633 c-26 -10 -44 -63 -37 -106 28 -167 201 -263 350 -193 89 41 145 124 145 214 0 60 -28 92 -81 92 -43 0 -74 -29 -84 -80 -18 -90 -112 -110 -153 -33 -7 12 -12 31 -12 43 0 33 -44 70 -82 69 -18 0 -39 -3 -46 -6z"></path><path d="M2892 2617 c-26 -28 -30 -99 -8 -151 21 -51 76 -107 131 -132 149 -70 322 26 350 193 7 45 -12 96 -40 107 -54 20 -125 -16 -125 -64 0 -12 -5 -31 -12 -43 -41 -77 -135 -57 -153 33 -16 77 -95 108 -143 57z"></path><path d="M1824 776 c-28 -13 -104 -97 -162 -182 -61 -89 -162 -345 -162 -411 0 -12 11 -34 24 -50 31 -36 93 -39 129 -5 23 21 25 22 69 6 38 -13 47 -20 52 -47 15 -72 87 -101 141 -54 32 27 31 20 28 429 -3 261 -3 267 -25 292 -30 32 -56 38 -94 22z"></path><path d="M3233 780 c-50 -20 -51 -32 -55 -388 l-3 -334 28 -24 c56 -48 128 -20 143 53 5 27 14 34 52 47 44 16 46 15 69 -6 36 -34 98 -31 129 5 31 36 30 53 -7 172 -42 135 -100 249 -179 352 -86 114 -128 142 -177 123z"></path></g></svg>