<svg xmlns="http://www.w3.org/2000/svg" width="512.000000pt" height="512.000000pt" viewBox="0 0 512.000000 512.000000" preserveAspectRatio="xMidYMid meet"><metadata>Created by potrace 1.16, written by Peter Selinger 2001-2019</metadata><g transform="translate(0.000000,512.000000) scale(0.100000,-0.100000)" fill="#000000" stroke="none"><path d="M2372 5101 c-40 -10 -112 -38 -160 -61 -72 -36 -104 -60 -183 -139 -83 -83 -102 -109 -142 -191 -66 -138 -80 -209 -75 -372 5 -110 10 -146 31 -207 45 -124 92 -199 191 -296 103 -102 204 -161 336 -195 l75 -19 -1067 0 -1068 -1 0 -1810 0 -1810 2250 0 2250 0 0 1810 0 1810 -1067 1 -1068 0 75 19 c41 11 113 39 160 62 69 34 103 60 180 138 78 77 104 111 138 180 59 119 82 218 82 354 0 136 -22 226 -82 346 -34 69 -61 103 -138 180 -77 78 -111 104 -180 138 -120 60 -218 82 -354 81 -71 0 -138 -7 -184 -18z m371 -328 c90 -43 177 -129 220 -220 30 -64 32 -74 32 -183 0 -109 -2 -119 -32 -183 -43 -91 -129 -177 -220 -220 -64 -30 -74 -32 -183 -32 -109 0 -119 2 -183 32 -91 43 -177 129 -220 220 -30 64 -32 74 -32 183 0 109 2 119 32 183 37 78 125 172 193 207 81 42 120 50 225 47 89 -2 108 -6 168 -34z m1767 -2963 l0 -1510 -1950 0 -1950 0 0 1510 0 1510 1950 0 1950 0 0 -1510z"></path><path d="M1100 2690 l-190 -380 0 -850 0 -850 150 0 150 0 0 800 0 800 180 360 180 360 -140 70 -140 70 -190 -380z"></path><path d="M3688 2999 l-138 -69 180 -360 180 -360 0 -800 0 -800 150 0 150 0 0 850 0 850 -190 380 c-105 209 -191 380 -193 379 -1 0 -64 -31 -139 -70z"></path><path d="M2410 2861 l0 -148 -117 -6 c-287 -15 -525 -127 -771 -363 l-87 -83 112 -112 112 -113 103 100 c177 173 341 248 586 268 l62 6 0 -149 0 -148 -117 -6 c-287 -15 -525 -127 -771 -363 l-87 -83 112 -112 112 -113 103 100 c177 173 341 248 586 268 l62 6 0 -149 0 -148 -117 -6 c-287 -15 -525 -127 -771 -363 l-87 -83 112 -112 112 -113 103 100 c177 173 341 248 586 268 l62 6 0 -300 0 -300 150 0 150 0 0 300 0 301 48 -5 c26 -3 71 -8 101 -11 85 -9 228 -60 316 -111 51 -30 117 -83 183 -148 l103 -100 112 113 112 112 -88 85 c-206 198 -382 294 -626 344 -54 11 -136 20 -180 20 l-81 0 0 150 0 151 48 -5 c26 -3 71 -8 101 -11 85 -9 228 -60 316 -111 51 -30 117 -83 183 -148 l103 -100 112 113 112 112 -88 85 c-206 198 -382 294 -626 344 -54 11 -136 20 -180 20 l-81 0 0 150 0 151 50 -6 c28 -3 73 -8 102 -11 82 -8 226 -59 313 -110 51 -30 117 -83 183 -148 l103 -100 112 113 112 112 -88 85 c-206 198 -382 294 -626 344 -54 11 -136 20 -180 20 l-81 0 0 150 0 150 -150 0 -150 0 0 -149z"></path></g></svg>