<svg xmlns="http://www.w3.org/2000/svg" width="416.000000pt" height="416.000000pt" viewBox="0 0 416.000000 416.000000" preserveAspectRatio="xMidYMid meet"><metadata>Created by potrace 1.16, written by Peter Selinger 2001-2019</metadata><g transform="translate(0.000000,416.000000) scale(0.100000,-0.100000)" fill="#000000" stroke="none"><path d="M1680 3440 c-27 -7 -28 -16 -15 -95 7 -39 5 -43 -34 -78 -23 -20 -49 -37 -60 -37 -10 0 -37 14 -61 31 l-43 31 -26 -27 -26 -26 25 -22 c14 -12 38 -31 53 -42 30 -22 30 -21 21 -147 -7 -100 7 -156 61 -230 40 -55 120 -110 155 -106 22 3 27 12 50 98 45 165 123 282 273 407 45 38 42 52 -20 94 l-45 31 4 62 3 61 -36 3 c-35 3 -36 2 -43 -36 -7 -49 -24 -64 -79 -69 -68 -6 -85 2 -98 47 -15 49 -26 59 -59 50z"></path><path d="M2310 3277 c-58 -23 -137 -63 -176 -89 -85 -57 -199 -174 -241 -249 -31 -54 -39 -78 -89 -259 -65 -239 -165 -350 -317 -350 -55 0 -58 1 -55 23 3 19 11 23 66 29 71 8 118 32 156 83 28 36 76 132 76 151 0 6 -22 21 -50 33 -152 69 -250 252 -221 415 9 51 8 63 -5 76 -14 14 -23 7 -90 -65 -41 -44 -74 -84 -74 -88 0 -5 22 -33 48 -62 59 -64 77 -119 75 -225 -2 -88 -29 -198 -78 -318 -74 -183 -82 -349 -26 -557 53 -196 60 -205 159 -205 l59 0 54 128 c44 104 58 128 77 130 12 2 22 1 22 -2 0 -9 80 -368 87 -391 4 -14 12 1 27 55 l22 75 144 0 c138 0 145 -1 145 -20 0 -19 -8 -20 -125 -23 l-126 -3 -28 -107 c-48 -179 -70 -178 -110 4 -15 71 -37 169 -48 218 l-20 89 -43 -99 -42 -99 -51 -5 c-59 -6 -74 -18 -74 -54 0 -69 272 -348 472 -483 179 -121 472 -202 635 -175 81 13 160 49 212 96 74 66 133 236 167 476 84 595 -16 1050 -281 1271 -63 52 -179 108 -241 116 -45 5 -50 3 -76 -27 -35 -43 -70 -111 -93 -185 -14 -47 -18 -91 -17 -205 0 -80 6 -165 12 -190 9 -37 9 -48 -3 -60 -24 -24 -41 5 -54 93 -25 176 -7 355 49 473 57 119 126 184 248 234 42 17 85 41 95 52 26 31 20 83 -22 188 -38 94 -69 130 -111 130 -8 0 -62 -19 -120 -43z"></path><path d="M1047 1818 c-8 -13 -27 -60 -42 -105 l-28 -82 -126 -3 -126 -3 0 -30 0 -30 149 0 150 0 22 55 c20 49 23 52 28 30 4 -14 23 -101 44 -194 37 -169 50 -197 84 -184 8 4 41 79 72 168 52 144 57 164 43 177 -27 27 -51 7 -76 -64 -39 -110 -41 -116 -46 -112 -2 3 -22 86 -44 185 -22 99 -43 188 -47 197 -9 24 -41 21 -57 -5z"></path></g></svg>