<svg xmlns="http://www.w3.org/2000/svg" width="512.000000pt" height="512.000000pt" viewBox="0 0 512.000000 512.000000" preserveAspectRatio="xMidYMid meet"><metadata>Created by potrace 1.16, written by Peter Selinger 2001-2019</metadata><g transform="translate(0.000000,512.000000) scale(0.100000,-0.100000)" fill="#000000" stroke="none"><path d="M1965 5095 c-567 -90 -993 -507 -1102 -1078 -12 -64 -17 -182 -20 -544 -6 -497 0 -589 40 -677 51 -111 167 -202 291 -228 l55 -12 26 -63 c46 -107 137 -233 235 -326 l91 -85 -3 -98 -3 -98 -400 -116 c-257 -74 -424 -128 -468 -150 -137 -70 -255 -189 -322 -325 -30 -61 -385 -1234 -385 -1272 0 -11 408 -13 2205 -13 1508 0 2205 3 2205 10 0 6 -13 56 -30 112 -16 55 -30 103 -30 105 0 3 39 -32 87 -78 104 -98 182 -139 277 -146 159 -13 300 65 368 205 31 63 33 73 33 172 0 96 -2 110 -28 160 -23 43 -135 161 -533 560 l-504 505 75 75 75 74 -57 58 c-32 32 -62 58 -67 58 -6 0 -42 -32 -81 -70 l-70 -70 -74 74 -74 75 31 80 c99 249 108 535 27 785 -55 168 -164 343 -294 471 l-61 59 0 309 c0 170 -5 341 -11 380 -79 527 -440 940 -949 1089 -160 46 -388 60 -555 33z m299 -165 c407 -40 754 -283 931 -652 90 -188 115 -335 115 -673 l0 -203 -78 36 -79 36 -11 82 c-27 182 -94 319 -262 529 -65 82 -123 151 -128 153 -5 1 -53 -34 -106 -78 -217 -179 -389 -268 -636 -328 -100 -24 -121 -25 -472 -29 l-368 -5 0 -210 c0 -209 0 -210 -22 -216 -13 -3 -46 -18 -75 -33 l-53 -28 0 288 c0 313 8 390 56 543 94 297 336 567 622 693 140 61 263 90 452 103 8 1 60 -3 114 -8z m504 -987 c70 -85 129 -179 155 -249 26 -69 49 -155 42 -162 -1 -2 -38 1 -80 7 -297 42 -602 -40 -850 -228 -193 -146 -348 -378 -410 -612 -27 -102 -48 -293 -39 -349 l5 -35 -50 55 c-57 62 -128 192 -162 295 -23 68 -23 82 -27 513 l-3 442 174 0 c395 0 611 40 863 159 97 46 236 132 299 185 17 14 33 25 37 26 3 0 24 -21 46 -47z m166 -589 c283 -54 548 -259 684 -529 69 -138 110 -343 98 -493 -34 -417 -311 -758 -713 -878 -105 -31 -304 -43 -420 -25 -325 50 -624 288 -750 597 -102 251 -96 539 17 782 67 145 208 309 340 397 226 150 474 200 744 149z m-1762 -381 c3 -120 4 -219 3 -221 -8 -9 -67 32 -97 68 -84 98 -77 221 19 318 28 28 56 52 61 52 5 0 11 -93 14 -217z m752 -1389 c280 -279 655 -395 1041 -319 63 12 153 41 243 76 l32 13 75 -74 75 -75 -72 -72 -73 -73 63 -62 62 -63 73 73 72 72 287 -288 287 -287 45 -156 c25 -86 46 -159 46 -163 0 -3 -141 -6 -313 -6 l-312 0 -36 290 c-20 160 -38 293 -40 295 -8 8 -169 -18 -169 -28 0 -14 59 -485 65 -524 l6 -33 -1176 0 -1177 0 6 38 c13 82 66 525 64 527 -6 6 -163 23 -167 19 -3 -3 -21 -134 -41 -292 l-35 -287 -314 -3 -313 -2 6 22 c3 13 66 230 141 483 85 291 148 487 171 535 48 97 143 193 240 242 45 22 228 79 522 163 343 98 452 133 452 144 0 9 16 -9 37 -39 20 -30 77 -96 127 -146z m1734 -111 l-143 -143 -58 58 -58 57 38 30 c67 53 162 147 205 202 l41 54 59 -58 58 -58 -142 -142z m1273 -1008 c61 -130 -39 -278 -186 -278 -28 0 -66 8 -85 18 -19 9 -257 238 -528 508 l-492 492 142 142 143 143 493 -492 c331 -331 500 -506 513 -533z"></path><path d="M2565 3203 c-279 -59 -526 -279 -610 -544 -179 -564 246 -1121 830 -1086 367 22 671 276 756 632 30 128 24 324 -15 440 -101 299 -349 516 -647 564 -89 15 -231 12 -314 -6z m322 -174 c111 -26 340 -167 331 -203 -2 -7 -48 -88 -103 -179 -129 -216 -130 -216 -174 -39 -18 70 -36 144 -42 165 l-10 37 -164 0 -164 0 -10 38 c-5 20 -15 57 -21 82 -6 25 -13 52 -16 61 -4 13 9 20 58 33 35 9 74 18 88 20 38 7 172 -2 227 -15z m-498 -254 l33 -135 164 0 163 0 11 -42 c6 -24 13 -50 15 -58 2 -8 6 -25 10 -37 6 -23 5 -23 -93 -23 l-98 0 -81 -202 -81 -203 -129 -3 -130 -3 -26 59 c-56 124 -73 295 -42 417 27 105 90 219 163 295 37 39 72 70 78 70 5 0 25 -61 43 -135z m971 -192 c30 -95 36 -219 16 -313 -20 -96 -81 -220 -144 -292 l-49 -56 -119 159 -118 159 -129 0 c-119 0 -129 1 -122 18 4 9 10 25 12 35 5 15 24 17 209 17 l203 0 102 170 c56 94 105 170 110 170 4 0 18 -30 29 -67z m-416 -638 c47 -63 86 -119 86 -124 0 -11 -90 -46 -158 -62 -71 -17 -218 -14 -291 6 -70 18 -176 68 -230 109 l-34 25 119 3 118 3 31 77 30 78 121 0 122 0 86 -115z"></path><path d="M4620 425 l0 -85 90 0 90 0 0 85 0 85 -90 0 -90 0 0 -85z"></path></g></svg>