<svg xmlns="http://www.w3.org/2000/svg" width="225.000000pt" height="225.000000pt" viewBox="0 0 225.000000 225.000000" preserveAspectRatio="xMidYMid meet"><metadata>Created by potrace 1.16, written by Peter Selinger 2001-2019</metadata><g transform="translate(0.000000,225.000000) scale(0.100000,-0.100000)" fill="#000000" stroke="none"><path d="M1192 1633 c-18 -7 -42 -57 -42 -88 l0 -25 -404 0 c-222 0 -412 -3 -421 -6 -42 -16 -45 -45 -45 -426 0 -319 2 -366 16 -387 l16 -23 27 53 c85 170 336 150 390 -31 l12 -40 348 0 349 0 6 32 c17 84 114 158 205 158 90 -1 179 -68 202 -153 l10 -38 52 3 52 3 3 74 3 73 -153 279 -153 279 -141 0 -142 0 -4 55 c-5 61 -28 95 -63 95 -18 0 -24 7 -30 38 -11 60 -50 92 -93 75z m-282 -328 l0 -125 105 0 105 0 0 -90 0 -90 -105 0 -105 0 0 -120 0 -120 -80 0 -80 0 0 120 0 120 -105 0 -105 0 0 90 0 90 105 0 105 0 0 125 0 125 80 0 80 0 0 -125z m714 -81 c17 -7 166 -281 166 -307 0 -8 -7 -18 -16 -21 -27 -10 -294 -7 -315 4 -17 10 -19 23 -19 160 0 131 2 150 18 159 19 11 141 15 166 5z"></path><path d="M484 810 c-48 -11 -90 -46 -113 -93 -27 -55 -27 -99 0 -154 80 -166 329 -108 329 77 0 81 -51 148 -128 170 -41 11 -44 11 -88 0z"></path><path d="M1600 808 c-19 -5 -46 -18 -61 -29 -34 -24 -69 -95 -69 -139 0 -44 35 -115 68 -139 44 -31 106 -43 152 -31 46 12 95 51 115 91 19 36 19 122 0 158 -20 39 -69 78 -113 91 -43 12 -46 11 -92 -2z"></path></g></svg>