<svg xmlns="http://www.w3.org/2000/svg" width="512.000000pt" height="512.000000pt" viewBox="0 0 512.000000 512.000000" preserveAspectRatio="xMidYMid meet"><g transform="translate(0.000000,512.000000) scale(0.100000,-0.100000)" fill="#000000" stroke="none"><path d="M2511 5108 c-13 -7 -34 -26 -45 -41 -20 -27 -21 -41 -24 -376 -3 -389 0 -410 57 -448 43 -29 79 -29 122 0 55 37 58 57 58 430 1 357 -1 380 -47 420 -26 24 -90 32 -121 15z"></path><path d="M4325 4420 c-37 -15 -503 -493 -510 -522 -14 -57 24 -121 81 -137 65 -18 94 3 346 256 199 200 237 244 243 275 17 91 -74 164 -160 128z"></path><path d="M694 4366 c-45 -45 -47 -96 -5 -152 34 -46 435 -444 471 -468 31 -20 72 -21 110 -1 42 22 60 53 60 105 l0 45 -253 252 -252 253 -49 0 c-41 0 -53 -5 -82 -34z"></path><path d="M2297 3869 c-536 -94 -913 -463 -1039 -1017 -22 -95 -22 -112 -25 -969 l-4 -873 1331 0 1331 0 -4 873 c-3 857 -3 874 -25 969 -127 558 -505 925 -1047 1018 -153 26 -367 26 -518 -1z m708 -453 c316 -152 550 -583 556 -1022 1 -102 -7 -126 -54 -154 -41 -25 -74 -25 -115 0 -43 26 -62 74 -62 153 0 195 -77 438 -191 603 -69 100 -146 167 -246 215 -91 43 -113 70 -113 135 0 28 8 44 34 70 46 46 96 46 191 0z"></path><path d="M75 2666 c-50 -22 -70 -52 -70 -106 0 -54 20 -84 72 -106 43 -19 690 -19 743 -1 40 14 80 67 80 107 0 40 -40 93 -80 107 -52 18 -704 17 -745 -1z"></path><path d="M4300 2667 c-40 -14 -80 -67 -80 -107 0 -40 40 -93 80 -107 44 -15 678 -18 731 -3 56 16 84 52 84 110 0 55 -20 84 -72 106 -43 19 -690 19 -743 1z"></path><path d="M948 761 c-269 -73 -466 -302 -494 -574 l-7 -67 2112 0 2111 0 0 33 c-1 67 -31 175 -75 265 -77 155 -206 268 -377 330 l-73 27 -1565 2 c-1487 2 -1568 1 -1632 -16z"></path></g></svg>