<svg xmlns="http://www.w3.org/2000/svg" width="200.000000pt" height="200.000000pt" viewBox="0 0 200.000000 200.000000" preserveAspectRatio="xMidYMid meet"><g transform="translate(0.000000,200.000000) scale(0.100000,-0.100000)" fill="#000000" stroke="none"><path d="M831 1635 c-30 -9 -70 -25 -88 -36 -23 -14 -42 -19 -59 -15 -35 9 -139 -11 -188 -36 -99 -50 -173 -136 -211 -243 -12 -37 -38 -82 -58 -104 -50 -56 -71 -130 -65 -240 3 -61 10 -98 25 -127 28 -53 92 -110 140 -124 25 -8 47 -25 65 -50 16 -23 47 -48 82 -65 65 -32 66 -35 36 -144 -28 -99 -24 -103 98 -99 83 3 96 6 106 23 40 73 92 128 173 182 84 56 91 58 168 64 101 7 148 21 209 59 47 30 52 31 185 34 151 2 209 18 291 77 119 87 134 332 30 485 -31 44 -101 101 -136 110 -12 3 -26 19 -33 39 -15 44 -89 111 -155 141 -64 29 -161 43 -227 33 -42 -7 -57 -4 -104 17 -71 33 -204 41 -284 19z m232 -65 l37 -11 -30 -31 c-32 -32 -34 -45 -8 -61 11 -8 24 -3 49 15 69 52 97 61 178 56 205 -12 323 -157 240 -294 -24 -39 -24 -60 -1 -69 23 -9 66 43 82 101 7 24 16 44 19 44 4 0 25 -15 48 -34 107 -92 135 -315 52 -420 -45 -58 -163 -96 -294 -96 l-74 0 21 47 c26 60 34 156 18 223 -25 103 -110 161 -256 176 -76 8 -106 29 -104 72 3 42 1 49 -15 56 -42 16 -60 -74 -26 -130 16 -26 17 -33 5 -49 -30 -41 -8 -121 32 -113 15 3 19 11 17 41 -2 34 1 40 30 52 58 24 179 -7 225 -58 65 -70 50 -226 -29 -312 -55 -60 -125 -89 -219 -89 -64 -1 -82 3 -121 26 -50 29 -98 95 -119 163 -17 55 -38 96 -64 123 -84 93 -269 83 -307 -15 -11 -28 -2 -53 19 -53 9 0 30 16 48 35 28 31 37 35 80 35 80 0 126 -38 158 -128 14 -39 14 -47 1 -73 -18 -34 -43 -49 -83 -49 -38 0 -80 41 -84 82 -4 40 -31 59 -53 37 -42 -41 43 -177 112 -180 58 -2 79 3 119 30 l41 28 52 -50 c28 -27 51 -50 49 -51 -2 -1 -26 -16 -53 -34 -58 -36 -146 -121 -175 -169 -18 -30 -24 -33 -66 -33 l-46 0 6 33 c4 17 12 61 17 96 11 74 7 81 -57 99 -88 25 -124 79 -124 186 0 67 -9 81 -42 64 -14 -7 -18 -21 -18 -63 0 -30 -3 -55 -6 -55 -21 0 -73 45 -94 82 -22 37 -25 56 -25 133 0 77 4 98 25 140 45 87 128 113 255 80 55 -15 61 -15 72 1 6 9 9 22 6 30 -8 23 -107 46 -178 42 -61 -3 -64 -2 -59 17 11 35 65 114 100 145 49 43 108 70 166 77 54 7 54 7 31 -53 -6 -15 24 -37 42 -31 8 4 21 21 28 40 25 59 76 91 177 111 34 6 127 -1 173 -14z"></path><path d="M889 1483 c-1 -5 -2 -26 -3 -49 -5 -96 -42 -131 -150 -141 -61 -5 -66 -4 -90 21 -29 32 -60 31 -64 -1 -5 -32 39 -71 87 -79 41 -7 41 -7 41 -51 0 -38 5 -50 35 -80 26 -26 41 -34 62 -31 40 4 44 42 7 60 -15 7 -32 20 -37 29 -13 21 0 68 21 76 52 17 102 47 117 69 22 34 40 123 31 157 -5 20 -13 27 -31 27 -14 0 -25 -3 -26 -7z"></path><path d="M1165 1411 c-61 -28 -88 -58 -75 -81 14 -26 23 -25 68 5 52 34 92 41 130 21 38 -20 52 -44 52 -91 0 -23 6 -38 15 -41 43 -17 60 63 26 126 -22 42 -90 80 -140 80 -20 0 -54 -9 -76 -19z"></path><path d="M1432 1158 c-17 -17 -15 -46 8 -93 27 -55 70 -79 142 -80 47 0 64 5 100 31 31 21 43 37 43 54 0 35 -29 37 -66 6 -24 -20 -41 -26 -80 -26 -57 0 -89 24 -89 68 0 29 -16 52 -35 52 -6 0 -16 -5 -23 -12z"></path><path d="M890 1005 c-13 -16 -6 -63 16 -107 49 -95 182 -101 272 -10 33 33 43 49 40 70 -4 33 -43 44 -52 14 -4 -10 -20 -31 -36 -47 -23 -22 -42 -29 -83 -33 -49 -4 -56 -2 -75 23 -12 15 -22 36 -22 47 0 48 -35 73 -60 43z"></path></g></svg>