<svg xmlns="http://www.w3.org/2000/svg" width="200.000000pt" height="200.000000pt" viewBox="0 0 200.000000 200.000000" preserveAspectRatio="xMidYMid meet"><metadata>Created by potrace 1.16, written by Peter Selinger 2001-2019</metadata><g transform="translate(0.000000,200.000000) scale(0.100000,-0.100000)" fill="#000000" stroke="none"><path d="M489 1762 c-70 -70 -134 -141 -143 -159 -21 -41 -21 -131 0 -183 29 -72 17 -97 -116 -235 -130 -135 -169 -197 -196 -312 -21 -89 -14 -244 15 -325 25 -74 92 -177 169 -261 34 -39 70 -90 83 -122 l23 -55 518 0 518 0 16 25 c29 44 63 151 70 218 10 96 -10 184 -82 365 -39 96 -64 174 -62 190 3 25 22 35 318 160 318 134 360 157 360 204 0 11 -18 54 -40 96 -37 72 -89 138 -284 358 -43 49 -90 106 -105 126 l-26 38 -455 -1 -455 -1 -126 -126z m1040 -364 c38 -36 59 -63 55 -72 -3 -8 -60 -51 -126 -97 -67 -45 -119 -76 -116 -68 3 8 27 80 53 161 35 106 52 145 61 140 6 -4 39 -33 73 -64z m-883 -249 c225 -40 428 -248 466 -476 42 -250 -135 -475 -385 -490 -160 -10 -295 45 -422 172 -93 93 -138 173 -162 293 -63 307 188 558 503 501z"></path><path d="M345 981 c-86 -39 -122 -104 -111 -198 12 -102 44 -154 113 -185 46 -20 45 -19 64 -128 6 -35 17 -76 24 -91 37 -71 141 -115 254 -107 77 6 136 33 176 80 25 30 27 37 22 95 -4 37 -2 65 4 68 5 4 31 1 58 -6 26 -6 59 -9 73 -6 28 7 54 56 44 82 -6 18 -37 20 -54 3 -9 -9 -28 -4 -82 21 -39 18 -78 30 -88 27 -10 -4 -35 -22 -56 -41 -42 -38 -107 -61 -132 -47 -12 7 -6 12 25 24 34 13 41 21 41 43 0 31 -43 78 -68 73 -10 -2 -18 -14 -20 -30 -3 -29 -37 -47 -54 -30 -6 6 5 24 31 50 43 43 51 73 27 107 -7 11 -16 42 -20 68 -8 52 -48 107 -97 133 -39 20 -126 17 -174 -5z"></path></g></svg>