<svg xmlns="http://www.w3.org/2000/svg" width="246.000000pt" height="205.000000pt" viewBox="0 0 246.000000 205.000000" preserveAspectRatio="xMidYMid meet"><metadata>Created by potrace 1.16, written by Peter Selinger 2001-2019</metadata><g transform="translate(0.000000,205.000000) scale(0.100000,-0.100000)" fill="#000000" stroke="none"><path d="M840 2040 c-109 -23 -271 -130 -373 -246 l-36 -41 30 -22 c52 -38 71 -99 80 -246 6 -105 5 -134 -7 -152 -8 -13 -14 -47 -14 -80 1 -76 29 -141 70 -156 20 -7 30 -18 30 -32 0 -44 48 -121 111 -180 l65 -60 -30 -20 c-42 -28 -96 -135 -96 -190 0 -39 5 -49 50 -94 27 -27 52 -62 56 -78 4 -15 18 -52 31 -81 53 -120 50 -182 -9 -201 -58 -19 -119 -18 -132 1 -23 36 35 76 69 48 9 -7 26 -9 41 -6 24 6 26 10 21 42 -9 53 -49 133 -101 202 -68 90 -91 86 -169 -31 -80 -118 -100 -208 -48 -215 13 -2 28 1 34 7 18 18 55 13 67 -9 12 -23 -2 -60 -24 -60 -39 0 -122 22 -139 38 -26 23 -19 95 17 176 14 32 26 66 26 75 1 27 69 111 104 127 29 15 34 22 43 78 6 33 10 62 9 62 -4 5 -365 -67 -407 -81 -61 -21 -113 -64 -140 -117 -25 -48 -71 -343 -58 -374 21 -56 -16 -54 856 -54 442 0 803 2 803 5 0 11 -53 85 -61 85 -18 0 -73 57 -90 95 -24 51 -24 99 0 150 21 45 43 68 92 93 33 16 137 118 128 126 -2 2 -71 15 -153 30 -124 22 -184 39 -227 63 -3 2 -2 -18 2 -44 4 -26 8 -88 9 -138 l1 -90 42 -30 c28 -21 47 -44 57 -72 13 -39 12 -46 -6 -90 -26 -63 -70 -93 -137 -93 -45 0 -53 4 -93 44 -40 40 -44 48 -44 93 0 60 30 111 77 133 l33 15 0 95 c0 103 -19 196 -50 245 -11 16 -20 25 -20 18 0 -6 5 -15 10 -18 23 -14 5 -35 -105 -125 -62 -52 -116 -95 -118 -95 -4 0 -247 167 -247 170 0 19 34 75 43 71 75 -32 155 -48 211 -44 88 7 147 37 228 115 73 71 101 114 112 173 5 27 13 38 36 47 76 29 115 216 52 252 -14 8 -15 13 -4 28 44 64 56 108 57 208 0 87 -4 107 -26 156 -15 31 -44 76 -65 99 -39 43 -121 90 -158 90 -10 0 -44 16 -74 37 -30 20 -77 44 -104 55 -58 22 -175 31 -238 18z m427 -403 c56 -50 81 -162 65 -277 -12 -77 -5 -89 41 -72 49 20 52 19 55 -12 9 -77 -28 -141 -75 -130 -32 8 -43 -7 -43 -67 0 -56 -36 -116 -106 -178 -70 -62 -124 -84 -209 -84 -88 -1 -123 14 -212 91 -75 65 -101 107 -112 181 -5 40 -9 46 -33 49 -44 5 -63 36 -63 105 0 52 3 62 18 65 10 2 27 -4 37 -13 35 -31 50 -13 50 60 0 36 6 80 14 98 29 70 122 122 258 143 69 10 112 24 168 53 82 41 89 41 147 -12z"></path><path d="M1968 753 c-26 -17 -48 -52 -48 -77 0 -7 9 -25 21 -40 23 -30 78 -36 99 -11 17 21 3 35 -33 32 -26 -2 -33 2 -35 20 -2 15 5 27 23 39 25 16 27 16 53 -3 48 -35 37 -104 -22 -145 -36 -25 -47 -39 -40 -50 9 -15 37 -8 71 18 42 32 63 72 63 123 0 80 -88 135 -152 94z"></path><path d="M1807 554 c-27 -19 -63 -58 -79 -85 -25 -39 -36 -49 -59 -49 -33 0 -79 -50 -79 -86 0 -43 27 -81 68 -97 27 -11 42 -24 46 -41 11 -45 100 -131 168 -161 85 -39 203 -41 293 -5 70 27 155 106 176 163 8 24 19 37 31 37 10 0 32 13 49 28 26 24 32 36 32 72 0 35 -6 48 -27 67 -15 13 -37 23 -50 23 -16 0 -33 15 -60 55 -39 56 -115 115 -148 115 -31 0 -20 -26 24 -55 52 -35 85 -70 109 -117 16 -32 24 -38 52 -38 40 0 57 -15 57 -51 0 -32 -21 -52 -57 -53 -22 -1 -29 -8 -40 -43 -21 -63 -82 -125 -155 -158 -161 -73 -355 -3 -419 151 -20 48 -26 54 -46 49 -26 -6 -63 25 -63 53 0 28 32 52 68 52 26 0 34 6 45 33 20 47 63 94 113 123 24 14 44 32 44 40 0 25 -43 15 -93 -22z"></path></g></svg>