<svg xmlns="http://www.w3.org/2000/svg" width="200.000000pt" height="200.000000pt" viewBox="0 0 200.000000 200.000000" preserveAspectRatio="xMidYMid meet"><metadata>Created by potrace 1.16, written by Peter Selinger 2001-2019</metadata><g transform="translate(0.000000,200.000000) scale(0.100000,-0.100000)" fill="#000000" stroke="none"><path d="M891 1724 c-61 -31 -106 -87 -123 -151 l-10 -43 -219 0 c-199 0 -218 -2 -223 -17 -3 -10 -17 -92 -31 -183 -14 -91 -30 -183 -35 -205 -17 -73 -12 -132 12 -155 43 -40 82 -23 128 55 l30 50 0 -412 0 -413 580 0 580 0 2 408 3 407 32 -52 c36 -58 69 -74 109 -52 45 24 45 25 -11 374 -14 88 -28 168 -31 178 -5 15 -24 17 -223 17 l-219 0 -10 43 c-26 103 -123 177 -232 177 -41 0 -71 -7 -109 -26z m218 -42 c136 -84 117 -294 -31 -357 -134 -55 -278 41 -278 186 0 165 169 258 309 171z m-340 -231 c26 -104 120 -175 231 -175 111 0 205 71 231 175 l13 49 202 0 202 0 6 -27 c3 -16 21 -122 41 -237 36 -217 36 -246 -5 -246 -12 0 -29 18 -49 53 -51 90 -115 97 -159 18 -27 -48 -57 -75 -76 -68 -8 3 -30 30 -49 60 -53 83 -113 84 -155 5 -22 -41 -49 -68 -67 -68 -8 0 -30 25 -50 55 -62 97 -108 97 -170 0 -20 -30 -42 -55 -50 -55 -17 0 -37 20 -68 70 -13 19 -34 41 -48 49 -36 20 -75 -1 -108 -58 -46 -79 -74 -76 -123 10 -44 79 -107 72 -159 -17 -20 -35 -37 -54 -49 -54 -41 0 -42 29 -5 247 20 114 38 220 41 236 l6 27 202 0 202 0 13 -49z m-2 -411 c52 -81 52 -81 96 -78 39 3 45 7 80 61 24 35 46 57 57 57 11 0 33 -22 57 -57 35 -54 41 -58 80 -61 44 -3 44 -3 96 78 33 51 59 47 99 -15 59 -90 114 -91 168 -4 16 27 32 49 35 49 3 0 5 -178 5 -395 l0 -395 -50 0 -50 0 0 239 c0 132 -4 251 -10 265 l-10 26 -197 0 c-109 0 -204 -4 -210 -8 -9 -6 -13 -74 -15 -262 l-3 -255 -267 -3 -268 -2 0 395 c0 217 2 395 5 395 3 0 19 -22 35 -49 55 -88 109 -86 169 7 41 63 64 65 98 12z m433 -515 l0 -246 -82 3 -83 3 -3 230 c-1 126 0 235 2 242 4 9 30 13 86 13 l80 0 0 -245z m200 0 l0 -246 -82 3 -83 3 -3 229 c-2 126 -1 235 2 243 4 9 28 13 86 13 l80 0 0 -245z"></path><path d="M947 1654 c-4 -4 -7 -24 -7 -45 0 -37 -1 -38 -42 -41 l-43 -3 -3 -52 -3 -53 45 0 46 0 0 -38 c0 -47 14 -62 60 -62 46 0 60 15 60 62 l0 38 46 0 45 0 -3 53 -3 52 -42 3 c-42 3 -42 3 -45 45 l-3 42 -50 3 c-28 2 -54 0 -58 -4z m73 -75 c5 -44 5 -44 48 -47 34 -3 42 -7 42 -23 0 -16 -7 -19 -45 -19 l-45 0 0 -45 c0 -38 -3 -45 -20 -45 -17 0 -20 7 -20 45 l0 45 -45 0 c-38 0 -45 3 -45 19 0 16 8 20 43 23 40 3 42 5 45 38 4 48 10 62 25 58 6 -3 14 -24 17 -49z"></path><path d="M571 787 c-5 -13 -10 -73 -10 -134 -2 -147 -6 -143 155 -140 98 2 127 5 134 17 12 19 11 239 -2 263 -8 15 -25 17 -139 17 -126 0 -130 -1 -138 -23z m249 -127 l0 -110 -110 0 -110 0 0 110 0 110 110 0 110 0 0 -110z"></path></g></svg>