<svg xmlns="http://www.w3.org/2000/svg" width="512.000000pt" height="512.000000pt" viewBox="0 0 512.000000 512.000000" preserveAspectRatio="xMidYMid meet"><metadata>Created by potrace 1.16, written by Peter Selinger 2001-2019</metadata><g transform="translate(0.000000,512.000000) scale(0.100000,-0.100000)" fill="#000000" stroke="none"><path d="M1535 4866 c-161 -32 -278 -92 -397 -205 -213 -202 -317 -507 -318 -936 l0 -160 -77 -40 c-191 -100 -401 -257 -507 -379 -166 -192 -236 -365 -236 -586 0 -199 54 -350 187 -525 115 -151 336 -326 556 -440 l77 -40 0 -160 c1 -429 105 -734 318 -936 93 -88 163 -131 274 -170 300 -103 644 -38 1036 195 l113 67 62 -39 c649 -406 1230 -350 1518 148 26 44 61 123 79 177 56 169 70 266 77 504 l6 216 44 22 c24 12 90 49 146 83 333 201 540 441 608 706 27 105 26 281 -1 387 -73 285 -315 547 -701 757 l-96 53 -6 215 c-4 156 -11 242 -26 313 -94 461 -350 729 -742 779 -258 32 -585 -63 -907 -265 l-62 -39 -73 45 c-279 172 -515 254 -757 262 -82 3 -149 0 -195 -9z m290 -311 c48 -9 135 -33 192 -55 105 -39 274 -125 272 -138 0 -4 -37 -38 -81 -77 -75 -65 -213 -210 -348 -363 l-55 -63 -145 -29 c-167 -32 -305 -67 -437 -109 l-93 -29 0 88 c0 264 83 515 214 646 124 124 276 164 481 129z m1701 4 c92 -17 181 -64 250 -133 131 -131 214 -382 214 -646 l0 -88 -92 29 c-128 41 -298 83 -457 114 -118 22 -136 29 -155 53 -76 98 -277 310 -400 422 -68 62 -71 55 53 118 217 113 429 160 587 131z m-879 -458 c43 -38 105 -96 138 -130 l59 -61 -284 0 -284 0 59 61 c80 81 213 199 225 199 5 0 45 -31 87 -69z m278 -512 c232 -18 204 -6 297 -133 159 -220 334 -523 442 -764 l59 -132 -52 -118 c-107 -241 -291 -560 -450 -778 l-80 -112 -53 -6 c-304 -37 -775 -37 -1061 0 -48 7 -48 7 -128 118 -159 218 -343 537 -450 779 l-52 117 52 118 c66 149 189 378 290 540 100 160 238 352 254 352 7 0 51 5 97 11 192 24 585 28 835 8z m-1493 -278 c-59 -99 -125 -212 -146 -253 l-39 -73 -19 65 c-30 107 -70 312 -61 320 9 9 194 70 298 99 39 11 71 20 72 20 0 1 -47 -80 -105 -178z m2403 102 c61 -19 114 -39 118 -43 9 -8 -31 -213 -61 -320 l-19 -65 -39 73 c-21 41 -87 154 -145 252 l-106 178 71 -19 c39 -11 121 -36 181 -56z m-2880 -544 c21 -68 52 -166 71 -217 l33 -92 -35 -97 c-47 -129 -117 -376 -140 -489 l-18 -91 -75 44 c-214 126 -378 295 -451 463 -35 82 -40 222 -10 310 57 171 221 348 448 485 l87 52 26 -122 c15 -67 44 -178 64 -246z m3520 226 c141 -107 249 -236 306 -365 21 -48 24 -70 24 -170 0 -100 -3 -122 -24 -170 -76 -171 -238 -337 -451 -463 l-75 -44 -23 104 c-30 139 -93 357 -138 476 l-35 97 35 97 c45 119 108 337 138 476 l23 104 75 -44 c41 -25 107 -69 145 -98z m-3154 -1095 c34 -63 97 -172 140 -242 l77 -126 -71 19 c-97 27 -290 90 -300 98 -9 9 5 91 45 254 17 70 35 124 39 120 4 -4 35 -60 70 -123z m2615 -119 c14 -68 21 -127 17 -131 -10 -9 -200 -72 -299 -99 l-71 -19 106 178 c58 98 124 211 145 252 l39 73 19 -65 c10 -36 30 -121 44 -189z m-2611 -512 c77 -22 217 -55 310 -74 l170 -34 55 -63 c129 -147 273 -298 348 -363 44 -38 79 -74 78 -80 -4 -17 -225 -124 -320 -154 -226 -72 -403 -62 -548 30 -172 111 -288 395 -288 709 l0 90 28 -11 c15 -6 90 -28 167 -50z m2655 -186 c-25 -192 -96 -372 -185 -471 -178 -198 -460 -211 -820 -37 -164 80 -159 71 -84 140 129 119 319 320 395 417 19 24 38 30 195 62 158 32 485 118 498 132 11 11 12 -162 1 -243z m-1253 -89 c-65 -63 -129 -122 -143 -130 -32 -21 -41 -15 -191 130 l-118 115 285 0 285 0 -118 -115z"></path><path d="M2111 3140 c-118 -43 -207 -123 -264 -239 -31 -64 -32 -71 -32 -191 0 -122 1 -127 34 -195 30 -63 65 -102 372 -410 l339 -340 339 340 c307 308 342 347 372 410 33 68 34 73 34 195 0 122 -1 127 -34 195 -45 92 -125 171 -216 215 -60 29 -83 34 -164 38 -119 6 -181 -8 -265 -59 l-66 -40 -59 36 c-32 20 -80 43 -106 51 -70 21 -217 18 -284 -6z m212 -301 c12 -6 70 -59 130 -117 l107 -107 108 107 c59 58 117 111 129 117 60 31 157 1 188 -58 19 -38 19 -104 1 -139 -8 -15 -107 -119 -220 -232 l-206 -205 -206 205 c-113 113 -212 217 -220 232 -18 35 -18 101 1 139 31 59 128 89 188 58z"></path></g></svg>